<mxfile host="app.diagrams.net" modified="2020-08-08T16:38:01.239Z" agent="5.0 (Windows NT 10.0; Win64; x64) AppleWebKit/537.36 (KHTML, like Gecko) Chrome/84.0.4147.105 Safari/537.36" etag="xdmjpwdE4r3Lfv63qYMk" version="13.6.1" type="github">
  <diagram name="Page-1" id="6133507b-19e7-1e82-6fc7-422aa6c4b21f">
    <mxGraphModel dx="2152" dy="6015" grid="1" gridSize="10" guides="1" tooltips="1" connect="1" arrows="1" fold="1" page="0" pageScale="1" pageWidth="1920" pageHeight="1200" background="#ffffff" math="0" shadow="0">
      <root>
        <mxCell id="0" />
        <mxCell id="1" parent="0" />
        <mxCell id="0BSR14LC0eBBOxR-5EJ3-178" value="&lt;font style=&quot;font-size: 24px&quot;&gt;DOMAIN MODEL&lt;/font&gt;" style="rounded=0;whiteSpace=wrap;html=1;align=center;verticalAlign=top;labelBackgroundColor=none;" vertex="1" parent="1">
          <mxGeometry x="-120" y="-240" width="1480" height="280" as="geometry" />
        </mxCell>
        <mxCell id="0BSR14LC0eBBOxR-5EJ3-4" value="&lt;font style=&quot;font-size: 72px&quot;&gt;BACK-END&lt;/font&gt;" style="rounded=0;whiteSpace=wrap;html=1;" vertex="1" parent="1">
          <mxGeometry x="-120" y="-4680" width="720" height="560" as="geometry" />
        </mxCell>
        <mxCell id="0BSR14LC0eBBOxR-5EJ3-5" value="&lt;font style=&quot;font-size: 72px&quot;&gt;FRONT-END&lt;/font&gt;" style="rounded=0;whiteSpace=wrap;html=1;" vertex="1" parent="1">
          <mxGeometry x="640" y="-4680" width="720" height="560" as="geometry" />
        </mxCell>
        <mxCell id="0BSR14LC0eBBOxR-5EJ3-6" value="&lt;font style=&quot;font-size: 72px&quot;&gt;DOMAIN MODEL&lt;/font&gt;" style="rounded=0;whiteSpace=wrap;html=1;" vertex="1" parent="1">
          <mxGeometry x="-120" y="-4080" width="1480" height="280" as="geometry" />
        </mxCell>
        <mxCell id="0BSR14LC0eBBOxR-5EJ3-7" value="&lt;font style=&quot;font-size: 72px&quot;&gt;BACK-END&lt;/font&gt;" style="rounded=0;whiteSpace=wrap;html=1;" vertex="1" parent="1">
          <mxGeometry x="-120" y="-3400" width="720" height="560" as="geometry" />
        </mxCell>
        <mxCell id="0BSR14LC0eBBOxR-5EJ3-8" value="&lt;font style=&quot;font-size: 72px&quot;&gt;FRONT-END&lt;/font&gt;" style="rounded=0;whiteSpace=wrap;html=1;" vertex="1" parent="1">
          <mxGeometry x="640" y="-3400" width="720" height="560" as="geometry" />
        </mxCell>
        <mxCell id="0BSR14LC0eBBOxR-5EJ3-10" value="&lt;font style=&quot;font-size: 72px&quot;&gt;BACK-END&lt;/font&gt;" style="rounded=0;whiteSpace=wrap;html=1;" vertex="1" parent="1">
          <mxGeometry x="-120" y="-2120" width="600" height="560" as="geometry" />
        </mxCell>
        <mxCell id="0BSR14LC0eBBOxR-5EJ3-11" value="&lt;font style=&quot;font-size: 72px&quot;&gt;FRONT-END&lt;/font&gt;" style="rounded=0;whiteSpace=wrap;html=1;" vertex="1" parent="1">
          <mxGeometry x="760" y="-2120" width="600" height="560" as="geometry" />
        </mxCell>
        <mxCell id="0BSR14LC0eBBOxR-5EJ3-132" value="&lt;font style=&quot;font-size: 24px&quot;&gt;COMMUNICATION PROTOCOL&lt;br&gt;(graphQL, swagger/OpenAPI, AsyncAPI, RPC, etc.)&lt;br&gt;&lt;/font&gt;" style="rounded=0;whiteSpace=wrap;html=1;align=center;verticalAlign=top;" vertex="1" parent="1">
          <mxGeometry x="500" y="-2120" width="240" height="560" as="geometry" />
        </mxCell>
        <mxCell id="0BSR14LC0eBBOxR-5EJ3-155" value="" style="shape=singleArrow;direction=north;whiteSpace=wrap;html=1;labelBackgroundColor=none;sketch=0;fontColor=#000000;align=center;arrowWidth=0.3;arrowSize=0.4625;" vertex="1" parent="1">
          <mxGeometry x="570" y="-1560" width="60" height="40" as="geometry" />
        </mxCell>
        <mxCell id="0BSR14LC0eBBOxR-5EJ3-144" value="Create user request" style="shape=note;whiteSpace=wrap;html=1;size=14;verticalAlign=middle;align=center;spacingTop=-6;labelBackgroundColor=none;fontColor=#000000;horizontal=1;flipV=0;sketch=0;labelBorderColor=none;direction=east;" vertex="1" parent="1">
          <mxGeometry x="580" y="-1960" width="150" height="30" as="geometry" />
        </mxCell>
        <mxCell id="0BSR14LC0eBBOxR-5EJ3-145" value="Get places response" style="shape=note;whiteSpace=wrap;html=1;size=14;verticalAlign=middle;align=center;spacingTop=-6;labelBackgroundColor=none;fontColor=#000000;horizontal=1;flipV=0;sketch=0;labelBorderColor=none;direction=east;" vertex="1" parent="1">
          <mxGeometry x="580" y="-1760" width="150" height="30" as="geometry" />
        </mxCell>
        <mxCell id="0BSR14LC0eBBOxR-5EJ3-146" value="Get places request" style="shape=note;whiteSpace=wrap;html=1;size=14;verticalAlign=middle;align=center;spacingTop=-6;labelBackgroundColor=none;fontColor=#000000;horizontal=1;flipV=0;sketch=0;labelBorderColor=none;direction=east;" vertex="1" parent="1">
          <mxGeometry x="580" y="-1800" width="150" height="30" as="geometry" />
        </mxCell>
        <mxCell id="0BSR14LC0eBBOxR-5EJ3-147" value="Add photo response" style="shape=note;whiteSpace=wrap;html=1;size=14;verticalAlign=middle;align=center;spacingTop=-6;labelBackgroundColor=none;fontColor=#000000;horizontal=1;flipV=0;sketch=0;labelBorderColor=none;direction=east;" vertex="1" parent="1">
          <mxGeometry x="580" y="-1840" width="150" height="30" as="geometry" />
        </mxCell>
        <mxCell id="0BSR14LC0eBBOxR-5EJ3-148" value="Create user response" style="shape=note;whiteSpace=wrap;html=1;size=14;verticalAlign=middle;align=center;spacingTop=-6;labelBackgroundColor=none;fontColor=#000000;horizontal=1;flipV=0;sketch=0;labelBorderColor=none;direction=east;" vertex="1" parent="1">
          <mxGeometry x="580" y="-1920" width="150" height="30" as="geometry" />
        </mxCell>
        <mxCell id="0BSR14LC0eBBOxR-5EJ3-149" value="Add photo request" style="shape=note;whiteSpace=wrap;html=1;size=14;verticalAlign=middle;align=center;spacingTop=-6;labelBackgroundColor=none;fontColor=#000000;horizontal=1;flipV=0;sketch=0;labelBorderColor=none;direction=east;" vertex="1" parent="1">
          <mxGeometry x="580" y="-1880" width="150" height="30" as="geometry" />
        </mxCell>
        <mxCell id="0BSR14LC0eBBOxR-5EJ3-164" value="" style="shape=curlyBracket;whiteSpace=wrap;html=1;rounded=1;labelBackgroundColor=none;sketch=0;fontColor=#000000;align=center;" vertex="1" parent="1">
          <mxGeometry x="560" y="-1960" width="20" height="70" as="geometry" />
        </mxCell>
        <mxCell id="0BSR14LC0eBBOxR-5EJ3-165" value="" style="shape=curlyBracket;whiteSpace=wrap;html=1;rounded=1;labelBackgroundColor=none;sketch=0;fontColor=#000000;align=center;" vertex="1" parent="1">
          <mxGeometry x="560" y="-1880" width="20" height="70" as="geometry" />
        </mxCell>
        <mxCell id="0BSR14LC0eBBOxR-5EJ3-166" value="" style="shape=curlyBracket;whiteSpace=wrap;html=1;rounded=1;labelBackgroundColor=none;sketch=0;fontColor=#000000;align=center;" vertex="1" parent="1">
          <mxGeometry x="560" y="-1800" width="20" height="70" as="geometry" />
        </mxCell>
        <mxCell id="0BSR14LC0eBBOxR-5EJ3-167" value="Endpoint" style="shape=partialRectangle;whiteSpace=wrap;html=1;left=0;right=0;fillColor=none;labelBackgroundColor=none;sketch=0;fontColor=#000000;align=center;" vertex="1" parent="1">
          <mxGeometry x="510" y="-1935" width="50" height="20" as="geometry" />
        </mxCell>
        <mxCell id="0BSR14LC0eBBOxR-5EJ3-168" value="Endpoint" style="shape=partialRectangle;whiteSpace=wrap;html=1;left=0;right=0;fillColor=none;labelBackgroundColor=none;sketch=0;fontColor=#000000;align=center;" vertex="1" parent="1">
          <mxGeometry x="510" y="-1855" width="50" height="20" as="geometry" />
        </mxCell>
        <mxCell id="0BSR14LC0eBBOxR-5EJ3-169" value="Endpoint" style="shape=partialRectangle;whiteSpace=wrap;html=1;left=0;right=0;fillColor=none;labelBackgroundColor=none;sketch=0;fontColor=#000000;align=center;" vertex="1" parent="1">
          <mxGeometry x="510" y="-1775" width="50" height="20" as="geometry" />
        </mxCell>
        <mxCell id="0BSR14LC0eBBOxR-5EJ3-170" value="Get places response" style="shape=note;whiteSpace=wrap;html=1;size=14;verticalAlign=middle;align=center;spacingTop=-6;labelBackgroundColor=none;fontColor=#000000;horizontal=1;flipV=0;sketch=0;labelBorderColor=none;direction=east;" vertex="1" parent="1">
          <mxGeometry x="580" y="-1680" width="150" height="30" as="geometry" />
        </mxCell>
        <mxCell id="0BSR14LC0eBBOxR-5EJ3-171" value="Get places request" style="shape=note;whiteSpace=wrap;html=1;size=14;verticalAlign=middle;align=center;spacingTop=-6;labelBackgroundColor=none;fontColor=#000000;horizontal=1;flipV=0;sketch=0;labelBorderColor=none;direction=east;" vertex="1" parent="1">
          <mxGeometry x="580" y="-1720" width="150" height="30" as="geometry" />
        </mxCell>
        <mxCell id="0BSR14LC0eBBOxR-5EJ3-172" value="" style="shape=curlyBracket;whiteSpace=wrap;html=1;rounded=1;labelBackgroundColor=none;sketch=0;fontColor=#000000;align=center;" vertex="1" parent="1">
          <mxGeometry x="560" y="-1720" width="20" height="70" as="geometry" />
        </mxCell>
        <mxCell id="0BSR14LC0eBBOxR-5EJ3-173" value="Endpoint" style="shape=partialRectangle;whiteSpace=wrap;html=1;left=0;right=0;fillColor=none;labelBackgroundColor=none;sketch=0;fontColor=#000000;align=center;" vertex="1" parent="1">
          <mxGeometry x="510" y="-1695" width="50" height="20" as="geometry" />
        </mxCell>
        <mxCell id="0BSR14LC0eBBOxR-5EJ3-174" value="Get places response" style="shape=note;whiteSpace=wrap;html=1;size=14;verticalAlign=middle;align=center;spacingTop=-6;labelBackgroundColor=none;fontColor=#000000;horizontal=1;flipV=0;sketch=0;labelBorderColor=none;direction=east;" vertex="1" parent="1">
          <mxGeometry x="580" y="-1600" width="150" height="30" as="geometry" />
        </mxCell>
        <mxCell id="0BSR14LC0eBBOxR-5EJ3-175" value="Get places request" style="shape=note;whiteSpace=wrap;html=1;size=14;verticalAlign=middle;align=center;spacingTop=-6;labelBackgroundColor=none;fontColor=#000000;horizontal=1;flipV=0;sketch=0;labelBorderColor=none;direction=east;" vertex="1" parent="1">
          <mxGeometry x="580" y="-1640" width="150" height="30" as="geometry" />
        </mxCell>
        <mxCell id="0BSR14LC0eBBOxR-5EJ3-176" value="" style="shape=curlyBracket;whiteSpace=wrap;html=1;rounded=1;labelBackgroundColor=none;sketch=0;fontColor=#000000;align=center;" vertex="1" parent="1">
          <mxGeometry x="560" y="-1640" width="20" height="70" as="geometry" />
        </mxCell>
        <mxCell id="0BSR14LC0eBBOxR-5EJ3-177" value="Endpoint" style="shape=partialRectangle;whiteSpace=wrap;html=1;left=0;right=0;fillColor=none;labelBackgroundColor=none;sketch=0;fontColor=#000000;align=center;" vertex="1" parent="1">
          <mxGeometry x="510" y="-1615" width="50" height="20" as="geometry" />
        </mxCell>
        <mxCell id="0BSR14LC0eBBOxR-5EJ3-179" value="&lt;font style=&quot;font-size: 24px&quot;&gt;BACK-END&lt;/font&gt;" style="rounded=0;whiteSpace=wrap;html=1;verticalAlign=top;align=left;" vertex="1" parent="1">
          <mxGeometry x="-120" y="-840" width="570" height="560" as="geometry" />
        </mxCell>
        <mxCell id="0BSR14LC0eBBOxR-5EJ3-180" value="&lt;font style=&quot;font-size: 24px&quot;&gt;FRONT-END&lt;/font&gt;" style="rounded=0;whiteSpace=wrap;html=1;align=right;verticalAlign=top;" vertex="1" parent="1">
          <mxGeometry x="790" y="-840" width="570" height="560" as="geometry" />
        </mxCell>
        <mxCell id="0BSR14LC0eBBOxR-5EJ3-213" value="&lt;font style=&quot;font-size: 24px&quot;&gt;COMMUNICATION PROTOCOL&lt;br&gt;(graphQL, swagger/OpenAPI, AsyncAPI, RPC, etc.)&lt;br&gt;&lt;/font&gt;" style="rounded=0;whiteSpace=wrap;html=1;align=center;verticalAlign=top;" vertex="1" parent="1">
          <mxGeometry x="500" y="-840" width="240" height="560" as="geometry" />
        </mxCell>
        <mxCell id="0BSR14LC0eBBOxR-5EJ3-214" value="" style="shape=singleArrow;direction=north;whiteSpace=wrap;html=1;labelBackgroundColor=none;sketch=0;fontColor=#000000;align=center;arrowWidth=0.3;arrowSize=0.4625;" vertex="1" parent="1">
          <mxGeometry x="570" y="-280" width="60" height="40" as="geometry" />
        </mxCell>
        <mxCell id="0BSR14LC0eBBOxR-5EJ3-215" style="edgeStyle=orthogonalEdgeStyle;rounded=0;jumpStyle=none;orthogonalLoop=1;jettySize=auto;html=1;fontColor=#000000;entryX=0.5;entryY=0;entryDx=0;entryDy=0;" edge="1" parent="1" source="0BSR14LC0eBBOxR-5EJ3-212" target="0BSR14LC0eBBOxR-5EJ3-199">
          <mxGeometry relative="1" as="geometry">
            <mxPoint x="470" y="-204" as="targetPoint" />
            <Array as="points">
              <mxPoint x="175" y="-75" />
              <mxPoint x="280" y="-75" />
              <mxPoint x="280" y="-200" />
              <mxPoint x="770" y="-200" />
            </Array>
          </mxGeometry>
        </mxCell>
        <mxCell id="0BSR14LC0eBBOxR-5EJ3-216" style="edgeStyle=orthogonalEdgeStyle;rounded=0;jumpStyle=none;orthogonalLoop=1;jettySize=auto;html=1;fontColor=#000000;" edge="1" parent="1" source="0BSR14LC0eBBOxR-5EJ3-211" target="0BSR14LC0eBBOxR-5EJ3-181">
          <mxGeometry relative="1" as="geometry">
            <Array as="points">
              <mxPoint x="80" y="-71" />
              <mxPoint x="80" y="-111" />
            </Array>
          </mxGeometry>
        </mxCell>
        <mxCell id="0BSR14LC0eBBOxR-5EJ3-217" style="edgeStyle=orthogonalEdgeStyle;rounded=0;jumpStyle=none;orthogonalLoop=1;jettySize=auto;html=1;fontColor=#000000;" edge="1" parent="1" source="0BSR14LC0eBBOxR-5EJ3-197" target="0BSR14LC0eBBOxR-5EJ3-199">
          <mxGeometry relative="1" as="geometry" />
        </mxCell>
        <mxCell id="0BSR14LC0eBBOxR-5EJ3-218" style="edgeStyle=orthogonalEdgeStyle;rounded=0;jumpStyle=none;orthogonalLoop=1;jettySize=auto;html=1;fontColor=#000000;" edge="1" parent="1" source="0BSR14LC0eBBOxR-5EJ3-196" target="0BSR14LC0eBBOxR-5EJ3-181">
          <mxGeometry relative="1" as="geometry">
            <Array as="points">
              <mxPoint x="480" y="-71" />
              <mxPoint x="480" y="10" />
              <mxPoint x="-30" y="10" />
            </Array>
          </mxGeometry>
        </mxCell>
        <mxCell id="0BSR14LC0eBBOxR-5EJ3-219" value="Create user request" style="shape=note;whiteSpace=wrap;html=1;size=14;verticalAlign=middle;align=center;spacingTop=-6;labelBackgroundColor=none;fontColor=#000000;horizontal=1;flipV=0;sketch=0;labelBorderColor=none;direction=east;" vertex="1" parent="1">
          <mxGeometry x="580" y="-680" width="150" height="30" as="geometry" />
        </mxCell>
        <mxCell id="0BSR14LC0eBBOxR-5EJ3-220" value="Get places response" style="shape=note;whiteSpace=wrap;html=1;size=14;verticalAlign=middle;align=center;spacingTop=-6;labelBackgroundColor=none;fontColor=#000000;horizontal=1;flipV=0;sketch=0;labelBorderColor=none;direction=east;" vertex="1" parent="1">
          <mxGeometry x="580" y="-480" width="150" height="30" as="geometry" />
        </mxCell>
        <mxCell id="0BSR14LC0eBBOxR-5EJ3-221" value="Get places request" style="shape=note;whiteSpace=wrap;html=1;size=14;verticalAlign=middle;align=center;spacingTop=-6;labelBackgroundColor=none;fontColor=#000000;horizontal=1;flipV=0;sketch=0;labelBorderColor=none;direction=east;" vertex="1" parent="1">
          <mxGeometry x="580" y="-520" width="150" height="30" as="geometry" />
        </mxCell>
        <mxCell id="0BSR14LC0eBBOxR-5EJ3-222" value="Add photo response" style="shape=note;whiteSpace=wrap;html=1;size=14;verticalAlign=middle;align=center;spacingTop=-6;labelBackgroundColor=none;fontColor=#000000;horizontal=1;flipV=0;sketch=0;labelBorderColor=none;direction=east;" vertex="1" parent="1">
          <mxGeometry x="580" y="-560" width="150" height="30" as="geometry" />
        </mxCell>
        <mxCell id="0BSR14LC0eBBOxR-5EJ3-223" value="Create user response" style="shape=note;whiteSpace=wrap;html=1;size=14;verticalAlign=middle;align=center;spacingTop=-6;labelBackgroundColor=none;fontColor=#000000;horizontal=1;flipV=0;sketch=0;labelBorderColor=none;direction=east;" vertex="1" parent="1">
          <mxGeometry x="580" y="-640" width="150" height="30" as="geometry" />
        </mxCell>
        <mxCell id="0BSR14LC0eBBOxR-5EJ3-224" value="Add photo request" style="shape=note;whiteSpace=wrap;html=1;size=14;verticalAlign=middle;align=center;spacingTop=-6;labelBackgroundColor=none;fontColor=#000000;horizontal=1;flipV=0;sketch=0;labelBorderColor=none;direction=east;" vertex="1" parent="1">
          <mxGeometry x="580" y="-600" width="150" height="30" as="geometry" />
        </mxCell>
        <mxCell id="0BSR14LC0eBBOxR-5EJ3-225" value="" style="shape=curlyBracket;whiteSpace=wrap;html=1;rounded=1;labelBackgroundColor=none;sketch=0;fontColor=#000000;align=center;" vertex="1" parent="1">
          <mxGeometry x="560" y="-680" width="20" height="70" as="geometry" />
        </mxCell>
        <mxCell id="0BSR14LC0eBBOxR-5EJ3-226" value="" style="shape=curlyBracket;whiteSpace=wrap;html=1;rounded=1;labelBackgroundColor=none;sketch=0;fontColor=#000000;align=center;" vertex="1" parent="1">
          <mxGeometry x="560" y="-600" width="20" height="70" as="geometry" />
        </mxCell>
        <mxCell id="0BSR14LC0eBBOxR-5EJ3-227" value="" style="shape=curlyBracket;whiteSpace=wrap;html=1;rounded=1;labelBackgroundColor=none;sketch=0;fontColor=#000000;align=center;" vertex="1" parent="1">
          <mxGeometry x="560" y="-520" width="20" height="70" as="geometry" />
        </mxCell>
        <mxCell id="0BSR14LC0eBBOxR-5EJ3-228" value="Endpoint" style="shape=partialRectangle;whiteSpace=wrap;html=1;left=0;right=0;fillColor=none;labelBackgroundColor=none;sketch=0;fontColor=#000000;align=center;" vertex="1" parent="1">
          <mxGeometry x="510" y="-655" width="50" height="20" as="geometry" />
        </mxCell>
        <mxCell id="0BSR14LC0eBBOxR-5EJ3-229" value="Endpoint" style="shape=partialRectangle;whiteSpace=wrap;html=1;left=0;right=0;fillColor=none;labelBackgroundColor=none;sketch=0;fontColor=#000000;align=center;" vertex="1" parent="1">
          <mxGeometry x="510" y="-575" width="50" height="20" as="geometry" />
        </mxCell>
        <mxCell id="0BSR14LC0eBBOxR-5EJ3-230" value="Endpoint" style="shape=partialRectangle;whiteSpace=wrap;html=1;left=0;right=0;fillColor=none;labelBackgroundColor=none;sketch=0;fontColor=#000000;align=center;" vertex="1" parent="1">
          <mxGeometry x="510" y="-495" width="50" height="20" as="geometry" />
        </mxCell>
        <mxCell id="0BSR14LC0eBBOxR-5EJ3-231" value="Get places response" style="shape=note;whiteSpace=wrap;html=1;size=14;verticalAlign=middle;align=center;spacingTop=-6;labelBackgroundColor=none;fontColor=#000000;horizontal=1;flipV=0;sketch=0;labelBorderColor=none;direction=east;" vertex="1" parent="1">
          <mxGeometry x="580" y="-400" width="150" height="30" as="geometry" />
        </mxCell>
        <mxCell id="0BSR14LC0eBBOxR-5EJ3-232" value="Get places request" style="shape=note;whiteSpace=wrap;html=1;size=14;verticalAlign=middle;align=center;spacingTop=-6;labelBackgroundColor=none;fontColor=#000000;horizontal=1;flipV=0;sketch=0;labelBorderColor=none;direction=east;" vertex="1" parent="1">
          <mxGeometry x="580" y="-440" width="150" height="30" as="geometry" />
        </mxCell>
        <mxCell id="0BSR14LC0eBBOxR-5EJ3-233" value="" style="shape=curlyBracket;whiteSpace=wrap;html=1;rounded=1;labelBackgroundColor=none;sketch=0;fontColor=#000000;align=center;" vertex="1" parent="1">
          <mxGeometry x="560" y="-440" width="20" height="70" as="geometry" />
        </mxCell>
        <mxCell id="0BSR14LC0eBBOxR-5EJ3-234" value="Endpoint" style="shape=partialRectangle;whiteSpace=wrap;html=1;left=0;right=0;fillColor=none;labelBackgroundColor=none;sketch=0;fontColor=#000000;align=center;" vertex="1" parent="1">
          <mxGeometry x="510" y="-415" width="50" height="20" as="geometry" />
        </mxCell>
        <mxCell id="0BSR14LC0eBBOxR-5EJ3-235" value="Get places response" style="shape=note;whiteSpace=wrap;html=1;size=14;verticalAlign=middle;align=center;spacingTop=-6;labelBackgroundColor=none;fontColor=#000000;horizontal=1;flipV=0;sketch=0;labelBorderColor=none;direction=east;" vertex="1" parent="1">
          <mxGeometry x="580" y="-320" width="150" height="30" as="geometry" />
        </mxCell>
        <mxCell id="0BSR14LC0eBBOxR-5EJ3-236" value="Get places request" style="shape=note;whiteSpace=wrap;html=1;size=14;verticalAlign=middle;align=center;spacingTop=-6;labelBackgroundColor=none;fontColor=#000000;horizontal=1;flipV=0;sketch=0;labelBorderColor=none;direction=east;" vertex="1" parent="1">
          <mxGeometry x="580" y="-360" width="150" height="30" as="geometry" />
        </mxCell>
        <mxCell id="0BSR14LC0eBBOxR-5EJ3-237" value="" style="shape=curlyBracket;whiteSpace=wrap;html=1;rounded=1;labelBackgroundColor=none;sketch=0;fontColor=#000000;align=center;" vertex="1" parent="1">
          <mxGeometry x="560" y="-360" width="20" height="70" as="geometry" />
        </mxCell>
        <mxCell id="0BSR14LC0eBBOxR-5EJ3-238" value="Endpoint" style="shape=partialRectangle;whiteSpace=wrap;html=1;left=0;right=0;fillColor=none;labelBackgroundColor=none;sketch=0;fontColor=#000000;align=center;" vertex="1" parent="1">
          <mxGeometry x="510" y="-335" width="50" height="20" as="geometry" />
        </mxCell>
        <mxCell id="0BSR14LC0eBBOxR-5EJ3-239" value="" style="shape=singleArrow;direction=north;whiteSpace=wrap;html=1;labelBackgroundColor=none;sketch=0;fontColor=#000000;align=center;arrowWidth=0.3;arrowSize=0.4625;" vertex="1" parent="1">
          <mxGeometry x="-80" y="-280" width="60" height="40" as="geometry" />
        </mxCell>
        <mxCell id="0BSR14LC0eBBOxR-5EJ3-240" value="" style="shape=singleArrow;direction=north;whiteSpace=wrap;html=1;labelBackgroundColor=none;sketch=0;fontColor=#000000;align=center;arrowWidth=0.3;arrowSize=0.4625;" vertex="1" parent="1">
          <mxGeometry x="930" y="-280" width="60" height="40" as="geometry" />
        </mxCell>
        <mxCell id="0BSR14LC0eBBOxR-5EJ3-181" value="USER" style="swimlane;html=1;fontStyle=1;align=center;verticalAlign=top;childLayout=stackLayout;horizontal=1;startSize=26;horizontalStack=0;resizeParent=1;resizeLast=0;collapsible=1;marginBottom=0;swimlaneFillColor=#ffffff;shadow=0;comic=0;labelBackgroundColor=none;strokeWidth=1;fillColor=none;fontFamily=Verdana;fontSize=12;" vertex="1" parent="1">
          <mxGeometry x="-110" y="-170" width="160" height="118" as="geometry" />
        </mxCell>
        <mxCell id="0BSR14LC0eBBOxR-5EJ3-182" value="name" style="text;html=1;strokeColor=none;fillColor=none;align=left;verticalAlign=top;spacingLeft=4;spacingRight=4;whiteSpace=wrap;overflow=hidden;rotatable=0;points=[[0,0.5],[1,0.5]];portConstraint=eastwest;" vertex="1" parent="0BSR14LC0eBBOxR-5EJ3-181">
          <mxGeometry y="26" width="160" height="26" as="geometry" />
        </mxCell>
        <mxCell id="0BSR14LC0eBBOxR-5EJ3-183" value="surname" style="text;html=1;strokeColor=none;fillColor=none;align=left;verticalAlign=top;spacingLeft=4;spacingRight=4;whiteSpace=wrap;overflow=hidden;rotatable=0;points=[[0,0.5],[1,0.5]];portConstraint=eastwest;" vertex="1" parent="0BSR14LC0eBBOxR-5EJ3-181">
          <mxGeometry y="52" width="160" height="26" as="geometry" />
        </mxCell>
        <mxCell id="0BSR14LC0eBBOxR-5EJ3-184" value="" style="line;html=1;strokeWidth=1;fillColor=none;align=left;verticalAlign=middle;spacingTop=-1;spacingLeft=3;spacingRight=3;rotatable=0;labelPosition=right;points=[];portConstraint=eastwest;" vertex="1" parent="0BSR14LC0eBBOxR-5EJ3-181">
          <mxGeometry y="78" width="160" height="8" as="geometry" />
        </mxCell>
        <mxCell id="0BSR14LC0eBBOxR-5EJ3-185" style="edgeStyle=orthogonalEdgeStyle;rounded=0;jumpStyle=none;orthogonalLoop=1;jettySize=auto;html=1;fontColor=#000000;" edge="1" parent="0BSR14LC0eBBOxR-5EJ3-181" source="0BSR14LC0eBBOxR-5EJ3-186" target="0BSR14LC0eBBOxR-5EJ3-181">
          <mxGeometry relative="1" as="geometry">
            <mxPoint x="170" y="10" as="targetPoint" />
            <Array as="points">
              <mxPoint x="180" y="99" />
              <mxPoint x="180" y="10" />
            </Array>
          </mxGeometry>
        </mxCell>
        <mxCell id="0BSR14LC0eBBOxR-5EJ3-186" value="friends" style="text;html=1;strokeColor=none;fillColor=none;align=left;verticalAlign=top;spacingLeft=4;spacingRight=4;whiteSpace=wrap;overflow=hidden;rotatable=0;points=[[0,0.5],[1,0.5]];portConstraint=eastwest;" vertex="1" parent="0BSR14LC0eBBOxR-5EJ3-181">
          <mxGeometry y="86" width="160" height="26" as="geometry" />
        </mxCell>
        <mxCell id="0BSR14LC0eBBOxR-5EJ3-187" value="ARTICLE" style="swimlane;html=1;fontStyle=1;align=center;verticalAlign=top;childLayout=stackLayout;horizontal=1;startSize=26;horizontalStack=0;resizeParent=1;resizeLast=0;collapsible=1;marginBottom=0;swimlaneFillColor=#ffffff;shadow=0;comic=0;labelBackgroundColor=none;strokeWidth=1;fillColor=none;fontFamily=Verdana;fontSize=12;" vertex="1" parent="1">
          <mxGeometry x="300" y="-170" width="160" height="118" as="geometry" />
        </mxCell>
        <mxCell id="0BSR14LC0eBBOxR-5EJ3-188" value="name" style="text;html=1;strokeColor=none;fillColor=none;align=left;verticalAlign=top;spacingLeft=4;spacingRight=4;whiteSpace=wrap;overflow=hidden;rotatable=0;points=[[0,0.5],[1,0.5]];portConstraint=eastwest;" vertex="1" parent="0BSR14LC0eBBOxR-5EJ3-187">
          <mxGeometry y="26" width="160" height="26" as="geometry" />
        </mxCell>
        <mxCell id="0BSR14LC0eBBOxR-5EJ3-189" value="content" style="text;html=1;strokeColor=none;fillColor=none;align=left;verticalAlign=top;spacingLeft=4;spacingRight=4;whiteSpace=wrap;overflow=hidden;rotatable=0;points=[[0,0.5],[1,0.5]];portConstraint=eastwest;" vertex="1" parent="0BSR14LC0eBBOxR-5EJ3-187">
          <mxGeometry y="52" width="160" height="26" as="geometry" />
        </mxCell>
        <mxCell id="0BSR14LC0eBBOxR-5EJ3-190" value="" style="line;html=1;strokeWidth=1;fillColor=none;align=left;verticalAlign=middle;spacingTop=-1;spacingLeft=3;spacingRight=3;rotatable=0;labelPosition=right;points=[];portConstraint=eastwest;" vertex="1" parent="0BSR14LC0eBBOxR-5EJ3-187">
          <mxGeometry y="78" width="160" height="8" as="geometry" />
        </mxCell>
        <mxCell id="0BSR14LC0eBBOxR-5EJ3-191" value="comments" style="text;html=1;strokeColor=none;fillColor=none;align=left;verticalAlign=top;spacingLeft=4;spacingRight=4;whiteSpace=wrap;overflow=hidden;rotatable=0;points=[[0,0.5],[1,0.5]];portConstraint=eastwest;" vertex="1" parent="0BSR14LC0eBBOxR-5EJ3-187">
          <mxGeometry y="86" width="160" height="26" as="geometry" />
        </mxCell>
        <mxCell id="0BSR14LC0eBBOxR-5EJ3-192" value="EVENT" style="swimlane;html=1;fontStyle=1;align=center;verticalAlign=top;childLayout=stackLayout;horizontal=1;startSize=26;horizontalStack=0;resizeParent=1;resizeLast=0;collapsible=1;marginBottom=0;swimlaneFillColor=#ffffff;shadow=0;comic=0;labelBackgroundColor=none;strokeWidth=1;fillColor=none;fontFamily=Verdana;fontSize=12;" vertex="1" parent="1">
          <mxGeometry x="490" y="-170" width="160" height="170" as="geometry">
            <mxRectangle x="510" y="-2750" width="70" height="26" as="alternateBounds" />
          </mxGeometry>
        </mxCell>
        <mxCell id="0BSR14LC0eBBOxR-5EJ3-193" value="name" style="text;html=1;strokeColor=none;fillColor=none;align=left;verticalAlign=top;spacingLeft=4;spacingRight=4;whiteSpace=wrap;overflow=hidden;rotatable=0;points=[[0,0.5],[1,0.5]];portConstraint=eastwest;" vertex="1" parent="0BSR14LC0eBBOxR-5EJ3-192">
          <mxGeometry y="26" width="160" height="26" as="geometry" />
        </mxCell>
        <mxCell id="0BSR14LC0eBBOxR-5EJ3-194" value="date" style="text;html=1;strokeColor=none;fillColor=none;align=left;verticalAlign=top;spacingLeft=4;spacingRight=4;whiteSpace=wrap;overflow=hidden;rotatable=0;points=[[0,0.5],[1,0.5]];portConstraint=eastwest;" vertex="1" parent="0BSR14LC0eBBOxR-5EJ3-192">
          <mxGeometry y="52" width="160" height="26" as="geometry" />
        </mxCell>
        <mxCell id="0BSR14LC0eBBOxR-5EJ3-195" value="" style="line;html=1;strokeWidth=1;fillColor=none;align=left;verticalAlign=middle;spacingTop=-1;spacingLeft=3;spacingRight=3;rotatable=0;labelPosition=right;points=[];portConstraint=eastwest;" vertex="1" parent="0BSR14LC0eBBOxR-5EJ3-192">
          <mxGeometry y="78" width="160" height="8" as="geometry" />
        </mxCell>
        <mxCell id="0BSR14LC0eBBOxR-5EJ3-196" value="people" style="text;html=1;strokeColor=none;fillColor=none;align=left;verticalAlign=top;spacingLeft=4;spacingRight=4;whiteSpace=wrap;overflow=hidden;rotatable=0;points=[[0,0.5],[1,0.5]];portConstraint=eastwest;" vertex="1" parent="0BSR14LC0eBBOxR-5EJ3-192">
          <mxGeometry y="86" width="160" height="26" as="geometry" />
        </mxCell>
        <mxCell id="0BSR14LC0eBBOxR-5EJ3-197" value="place&lt;br&gt;" style="text;html=1;strokeColor=none;fillColor=none;align=left;verticalAlign=top;spacingLeft=4;spacingRight=4;whiteSpace=wrap;overflow=hidden;rotatable=0;points=[[0,0.5],[1,0.5]];portConstraint=eastwest;" vertex="1" parent="0BSR14LC0eBBOxR-5EJ3-192">
          <mxGeometry y="112" width="160" height="26" as="geometry" />
        </mxCell>
        <mxCell id="0BSR14LC0eBBOxR-5EJ3-198" value="comments" style="text;html=1;strokeColor=none;fillColor=none;align=left;verticalAlign=top;spacingLeft=4;spacingRight=4;whiteSpace=wrap;overflow=hidden;rotatable=0;points=[[0,0.5],[1,0.5]];portConstraint=eastwest;" vertex="1" parent="0BSR14LC0eBBOxR-5EJ3-192">
          <mxGeometry y="138" width="160" height="26" as="geometry" />
        </mxCell>
        <mxCell id="0BSR14LC0eBBOxR-5EJ3-199" value="PLACE" style="swimlane;html=1;fontStyle=1;align=center;verticalAlign=top;childLayout=stackLayout;horizontal=1;startSize=26;horizontalStack=0;resizeParent=1;resizeLast=0;collapsible=1;marginBottom=0;swimlaneFillColor=#ffffff;shadow=0;comic=0;labelBackgroundColor=none;strokeWidth=1;fillColor=none;fontFamily=Verdana;fontSize=12;" vertex="1" parent="1">
          <mxGeometry x="690" y="-170" width="160" height="118" as="geometry">
            <mxRectangle x="690" y="-2760" width="70" height="26" as="alternateBounds" />
          </mxGeometry>
        </mxCell>
        <mxCell id="0BSR14LC0eBBOxR-5EJ3-200" value="name" style="text;html=1;strokeColor=none;fillColor=none;align=left;verticalAlign=top;spacingLeft=4;spacingRight=4;whiteSpace=wrap;overflow=hidden;rotatable=0;points=[[0,0.5],[1,0.5]];portConstraint=eastwest;" vertex="1" parent="0BSR14LC0eBBOxR-5EJ3-199">
          <mxGeometry y="26" width="160" height="26" as="geometry" />
        </mxCell>
        <mxCell id="0BSR14LC0eBBOxR-5EJ3-201" value="address" style="text;html=1;strokeColor=none;fillColor=none;align=left;verticalAlign=top;spacingLeft=4;spacingRight=4;whiteSpace=wrap;overflow=hidden;rotatable=0;points=[[0,0.5],[1,0.5]];portConstraint=eastwest;" vertex="1" parent="0BSR14LC0eBBOxR-5EJ3-199">
          <mxGeometry y="52" width="160" height="26" as="geometry" />
        </mxCell>
        <mxCell id="0BSR14LC0eBBOxR-5EJ3-202" value="" style="line;html=1;strokeWidth=1;fillColor=none;align=left;verticalAlign=middle;spacingTop=-1;spacingLeft=3;spacingRight=3;rotatable=0;labelPosition=right;points=[];portConstraint=eastwest;" vertex="1" parent="0BSR14LC0eBBOxR-5EJ3-199">
          <mxGeometry y="78" width="160" height="8" as="geometry" />
        </mxCell>
        <mxCell id="0BSR14LC0eBBOxR-5EJ3-203" value="comments" style="text;html=1;strokeColor=none;fillColor=none;align=left;verticalAlign=top;spacingLeft=4;spacingRight=4;whiteSpace=wrap;overflow=hidden;rotatable=0;points=[[0,0.5],[1,0.5]];portConstraint=eastwest;" vertex="1" parent="0BSR14LC0eBBOxR-5EJ3-199">
          <mxGeometry y="86" width="160" height="26" as="geometry" />
        </mxCell>
        <mxCell id="0BSR14LC0eBBOxR-5EJ3-204" value="MESSAGE" style="swimlane;html=1;fontStyle=1;align=center;verticalAlign=top;childLayout=stackLayout;horizontal=1;startSize=26;horizontalStack=0;resizeParent=1;resizeLast=0;collapsible=1;marginBottom=0;swimlaneFillColor=#ffffff;shadow=0;comic=0;labelBackgroundColor=none;strokeWidth=1;fillColor=none;fontFamily=Verdana;fontSize=12;" vertex="1" parent="1">
          <mxGeometry x="890" y="-170" width="160" height="80" as="geometry">
            <mxRectangle x="890" y="-2760" width="70" height="26" as="alternateBounds" />
          </mxGeometry>
        </mxCell>
        <mxCell id="0BSR14LC0eBBOxR-5EJ3-205" value="content" style="text;html=1;strokeColor=none;fillColor=none;align=left;verticalAlign=top;spacingLeft=4;spacingRight=4;whiteSpace=wrap;overflow=hidden;rotatable=0;points=[[0,0.5],[1,0.5]];portConstraint=eastwest;" vertex="1" parent="0BSR14LC0eBBOxR-5EJ3-204">
          <mxGeometry y="26" width="160" height="26" as="geometry" />
        </mxCell>
        <mxCell id="0BSR14LC0eBBOxR-5EJ3-206" value="date" style="text;html=1;strokeColor=none;fillColor=none;align=left;verticalAlign=top;spacingLeft=4;spacingRight=4;whiteSpace=wrap;overflow=hidden;rotatable=0;points=[[0,0.5],[1,0.5]];portConstraint=eastwest;" vertex="1" parent="0BSR14LC0eBBOxR-5EJ3-204">
          <mxGeometry y="52" width="160" height="26" as="geometry" />
        </mxCell>
        <mxCell id="0BSR14LC0eBBOxR-5EJ3-207" value="PHOTO" style="swimlane;html=1;fontStyle=1;align=center;verticalAlign=top;childLayout=stackLayout;horizontal=1;startSize=26;horizontalStack=0;resizeParent=1;resizeLast=0;collapsible=1;marginBottom=0;swimlaneFillColor=#ffffff;shadow=0;comic=0;labelBackgroundColor=none;strokeWidth=1;fillColor=none;fontFamily=Verdana;fontSize=12;" vertex="1" parent="1">
          <mxGeometry x="95" y="-170" width="160" height="138" as="geometry" />
        </mxCell>
        <mxCell id="0BSR14LC0eBBOxR-5EJ3-208" value="name" style="text;html=1;strokeColor=none;fillColor=none;align=left;verticalAlign=top;spacingLeft=4;spacingRight=4;whiteSpace=wrap;overflow=hidden;rotatable=0;points=[[0,0.5],[1,0.5]];portConstraint=eastwest;" vertex="1" parent="0BSR14LC0eBBOxR-5EJ3-207">
          <mxGeometry y="26" width="160" height="26" as="geometry" />
        </mxCell>
        <mxCell id="0BSR14LC0eBBOxR-5EJ3-209" value="content" style="text;html=1;strokeColor=none;fillColor=none;align=left;verticalAlign=top;spacingLeft=4;spacingRight=4;whiteSpace=wrap;overflow=hidden;rotatable=0;points=[[0,0.5],[1,0.5]];portConstraint=eastwest;" vertex="1" parent="0BSR14LC0eBBOxR-5EJ3-207">
          <mxGeometry y="52" width="160" height="26" as="geometry" />
        </mxCell>
        <mxCell id="0BSR14LC0eBBOxR-5EJ3-210" value="" style="line;html=1;strokeWidth=1;fillColor=none;align=left;verticalAlign=middle;spacingTop=-1;spacingLeft=3;spacingRight=3;rotatable=0;labelPosition=right;points=[];portConstraint=eastwest;" vertex="1" parent="0BSR14LC0eBBOxR-5EJ3-207">
          <mxGeometry y="78" width="160" height="8" as="geometry" />
        </mxCell>
        <mxCell id="0BSR14LC0eBBOxR-5EJ3-211" value="people" style="text;html=1;strokeColor=none;fillColor=none;align=left;verticalAlign=top;spacingLeft=4;spacingRight=4;whiteSpace=wrap;overflow=hidden;rotatable=0;points=[[0,0.5],[1,0.5]];portConstraint=eastwest;" vertex="1" parent="0BSR14LC0eBBOxR-5EJ3-207">
          <mxGeometry y="86" width="160" height="26" as="geometry" />
        </mxCell>
        <mxCell id="0BSR14LC0eBBOxR-5EJ3-212" value="place&lt;br&gt;" style="text;html=1;strokeColor=none;fillColor=none;align=left;verticalAlign=top;spacingLeft=4;spacingRight=4;whiteSpace=wrap;overflow=hidden;rotatable=0;points=[[0,0.5],[1,0.5]];portConstraint=eastwest;" vertex="1" parent="0BSR14LC0eBBOxR-5EJ3-207">
          <mxGeometry y="112" width="160" height="26" as="geometry" />
        </mxCell>
        <mxCell id="0BSR14LC0eBBOxR-5EJ3-241" value="&lt;font style=&quot;font-size: 24px&quot;&gt;DOMAIN MODEL&lt;/font&gt;" style="rounded=0;whiteSpace=wrap;html=1;align=center;verticalAlign=top;labelBackgroundColor=none;" vertex="1" parent="1">
          <mxGeometry x="-120" y="-1520" width="1480" height="280" as="geometry" />
        </mxCell>
        <mxCell id="0BSR14LC0eBBOxR-5EJ3-242" style="edgeStyle=orthogonalEdgeStyle;rounded=0;jumpStyle=none;orthogonalLoop=1;jettySize=auto;html=1;fontColor=#000000;entryX=0.5;entryY=0;entryDx=0;entryDy=0;" edge="1" parent="1" source="0BSR14LC0eBBOxR-5EJ3-277" target="0BSR14LC0eBBOxR-5EJ3-264">
          <mxGeometry relative="1" as="geometry">
            <mxPoint x="470" y="-1484" as="targetPoint" />
            <Array as="points">
              <mxPoint x="175" y="-1355" />
              <mxPoint x="280" y="-1355" />
              <mxPoint x="280" y="-1480" />
              <mxPoint x="770" y="-1480" />
            </Array>
          </mxGeometry>
        </mxCell>
        <mxCell id="0BSR14LC0eBBOxR-5EJ3-243" style="edgeStyle=orthogonalEdgeStyle;rounded=0;jumpStyle=none;orthogonalLoop=1;jettySize=auto;html=1;fontColor=#000000;" edge="1" parent="1" source="0BSR14LC0eBBOxR-5EJ3-276" target="0BSR14LC0eBBOxR-5EJ3-246">
          <mxGeometry relative="1" as="geometry">
            <Array as="points">
              <mxPoint x="80" y="-1351" />
              <mxPoint x="80" y="-1391" />
            </Array>
          </mxGeometry>
        </mxCell>
        <mxCell id="0BSR14LC0eBBOxR-5EJ3-244" style="edgeStyle=orthogonalEdgeStyle;rounded=0;jumpStyle=none;orthogonalLoop=1;jettySize=auto;html=1;fontColor=#000000;" edge="1" parent="1" source="0BSR14LC0eBBOxR-5EJ3-262" target="0BSR14LC0eBBOxR-5EJ3-264">
          <mxGeometry relative="1" as="geometry" />
        </mxCell>
        <mxCell id="0BSR14LC0eBBOxR-5EJ3-245" style="edgeStyle=orthogonalEdgeStyle;rounded=0;jumpStyle=none;orthogonalLoop=1;jettySize=auto;html=1;fontColor=#000000;" edge="1" parent="1" source="0BSR14LC0eBBOxR-5EJ3-261" target="0BSR14LC0eBBOxR-5EJ3-246">
          <mxGeometry relative="1" as="geometry">
            <Array as="points">
              <mxPoint x="480" y="-1351" />
              <mxPoint x="480" y="-1270" />
              <mxPoint x="-30" y="-1270" />
            </Array>
          </mxGeometry>
        </mxCell>
        <mxCell id="0BSR14LC0eBBOxR-5EJ3-246" value="USER" style="swimlane;html=1;fontStyle=1;align=center;verticalAlign=top;childLayout=stackLayout;horizontal=1;startSize=26;horizontalStack=0;resizeParent=1;resizeLast=0;collapsible=1;marginBottom=0;swimlaneFillColor=#ffffff;shadow=0;comic=0;labelBackgroundColor=none;strokeWidth=1;fillColor=none;fontFamily=Verdana;fontSize=12;" vertex="1" parent="1">
          <mxGeometry x="-110" y="-1450" width="160" height="118" as="geometry" />
        </mxCell>
        <mxCell id="0BSR14LC0eBBOxR-5EJ3-247" value="name" style="text;html=1;strokeColor=none;fillColor=none;align=left;verticalAlign=top;spacingLeft=4;spacingRight=4;whiteSpace=wrap;overflow=hidden;rotatable=0;points=[[0,0.5],[1,0.5]];portConstraint=eastwest;" vertex="1" parent="0BSR14LC0eBBOxR-5EJ3-246">
          <mxGeometry y="26" width="160" height="26" as="geometry" />
        </mxCell>
        <mxCell id="0BSR14LC0eBBOxR-5EJ3-248" value="surname" style="text;html=1;strokeColor=none;fillColor=none;align=left;verticalAlign=top;spacingLeft=4;spacingRight=4;whiteSpace=wrap;overflow=hidden;rotatable=0;points=[[0,0.5],[1,0.5]];portConstraint=eastwest;" vertex="1" parent="0BSR14LC0eBBOxR-5EJ3-246">
          <mxGeometry y="52" width="160" height="26" as="geometry" />
        </mxCell>
        <mxCell id="0BSR14LC0eBBOxR-5EJ3-249" value="" style="line;html=1;strokeWidth=1;fillColor=none;align=left;verticalAlign=middle;spacingTop=-1;spacingLeft=3;spacingRight=3;rotatable=0;labelPosition=right;points=[];portConstraint=eastwest;" vertex="1" parent="0BSR14LC0eBBOxR-5EJ3-246">
          <mxGeometry y="78" width="160" height="8" as="geometry" />
        </mxCell>
        <mxCell id="0BSR14LC0eBBOxR-5EJ3-250" style="edgeStyle=orthogonalEdgeStyle;rounded=0;jumpStyle=none;orthogonalLoop=1;jettySize=auto;html=1;fontColor=#000000;" edge="1" parent="0BSR14LC0eBBOxR-5EJ3-246" source="0BSR14LC0eBBOxR-5EJ3-251" target="0BSR14LC0eBBOxR-5EJ3-246">
          <mxGeometry relative="1" as="geometry">
            <mxPoint x="170" y="10" as="targetPoint" />
            <Array as="points">
              <mxPoint x="180" y="99" />
              <mxPoint x="180" y="10" />
            </Array>
          </mxGeometry>
        </mxCell>
        <mxCell id="0BSR14LC0eBBOxR-5EJ3-251" value="friends" style="text;html=1;strokeColor=none;fillColor=none;align=left;verticalAlign=top;spacingLeft=4;spacingRight=4;whiteSpace=wrap;overflow=hidden;rotatable=0;points=[[0,0.5],[1,0.5]];portConstraint=eastwest;" vertex="1" parent="0BSR14LC0eBBOxR-5EJ3-246">
          <mxGeometry y="86" width="160" height="26" as="geometry" />
        </mxCell>
        <mxCell id="0BSR14LC0eBBOxR-5EJ3-252" value="ARTICLE" style="swimlane;html=1;fontStyle=1;align=center;verticalAlign=top;childLayout=stackLayout;horizontal=1;startSize=26;horizontalStack=0;resizeParent=1;resizeLast=0;collapsible=1;marginBottom=0;swimlaneFillColor=#ffffff;shadow=0;comic=0;labelBackgroundColor=none;strokeWidth=1;fillColor=none;fontFamily=Verdana;fontSize=12;" vertex="1" parent="1">
          <mxGeometry x="300" y="-1450" width="160" height="118" as="geometry" />
        </mxCell>
        <mxCell id="0BSR14LC0eBBOxR-5EJ3-253" value="name" style="text;html=1;strokeColor=none;fillColor=none;align=left;verticalAlign=top;spacingLeft=4;spacingRight=4;whiteSpace=wrap;overflow=hidden;rotatable=0;points=[[0,0.5],[1,0.5]];portConstraint=eastwest;" vertex="1" parent="0BSR14LC0eBBOxR-5EJ3-252">
          <mxGeometry y="26" width="160" height="26" as="geometry" />
        </mxCell>
        <mxCell id="0BSR14LC0eBBOxR-5EJ3-254" value="content" style="text;html=1;strokeColor=none;fillColor=none;align=left;verticalAlign=top;spacingLeft=4;spacingRight=4;whiteSpace=wrap;overflow=hidden;rotatable=0;points=[[0,0.5],[1,0.5]];portConstraint=eastwest;" vertex="1" parent="0BSR14LC0eBBOxR-5EJ3-252">
          <mxGeometry y="52" width="160" height="26" as="geometry" />
        </mxCell>
        <mxCell id="0BSR14LC0eBBOxR-5EJ3-255" value="" style="line;html=1;strokeWidth=1;fillColor=none;align=left;verticalAlign=middle;spacingTop=-1;spacingLeft=3;spacingRight=3;rotatable=0;labelPosition=right;points=[];portConstraint=eastwest;" vertex="1" parent="0BSR14LC0eBBOxR-5EJ3-252">
          <mxGeometry y="78" width="160" height="8" as="geometry" />
        </mxCell>
        <mxCell id="0BSR14LC0eBBOxR-5EJ3-256" value="comments" style="text;html=1;strokeColor=none;fillColor=none;align=left;verticalAlign=top;spacingLeft=4;spacingRight=4;whiteSpace=wrap;overflow=hidden;rotatable=0;points=[[0,0.5],[1,0.5]];portConstraint=eastwest;" vertex="1" parent="0BSR14LC0eBBOxR-5EJ3-252">
          <mxGeometry y="86" width="160" height="26" as="geometry" />
        </mxCell>
        <mxCell id="0BSR14LC0eBBOxR-5EJ3-257" value="EVENT" style="swimlane;html=1;fontStyle=1;align=center;verticalAlign=top;childLayout=stackLayout;horizontal=1;startSize=26;horizontalStack=0;resizeParent=1;resizeLast=0;collapsible=1;marginBottom=0;swimlaneFillColor=#ffffff;shadow=0;comic=0;labelBackgroundColor=none;strokeWidth=1;fillColor=none;fontFamily=Verdana;fontSize=12;" vertex="1" parent="1">
          <mxGeometry x="490" y="-1450" width="160" height="170" as="geometry">
            <mxRectangle x="510" y="-2750" width="70" height="26" as="alternateBounds" />
          </mxGeometry>
        </mxCell>
        <mxCell id="0BSR14LC0eBBOxR-5EJ3-258" value="name" style="text;html=1;strokeColor=none;fillColor=none;align=left;verticalAlign=top;spacingLeft=4;spacingRight=4;whiteSpace=wrap;overflow=hidden;rotatable=0;points=[[0,0.5],[1,0.5]];portConstraint=eastwest;" vertex="1" parent="0BSR14LC0eBBOxR-5EJ3-257">
          <mxGeometry y="26" width="160" height="26" as="geometry" />
        </mxCell>
        <mxCell id="0BSR14LC0eBBOxR-5EJ3-259" value="date" style="text;html=1;strokeColor=none;fillColor=none;align=left;verticalAlign=top;spacingLeft=4;spacingRight=4;whiteSpace=wrap;overflow=hidden;rotatable=0;points=[[0,0.5],[1,0.5]];portConstraint=eastwest;" vertex="1" parent="0BSR14LC0eBBOxR-5EJ3-257">
          <mxGeometry y="52" width="160" height="26" as="geometry" />
        </mxCell>
        <mxCell id="0BSR14LC0eBBOxR-5EJ3-260" value="" style="line;html=1;strokeWidth=1;fillColor=none;align=left;verticalAlign=middle;spacingTop=-1;spacingLeft=3;spacingRight=3;rotatable=0;labelPosition=right;points=[];portConstraint=eastwest;" vertex="1" parent="0BSR14LC0eBBOxR-5EJ3-257">
          <mxGeometry y="78" width="160" height="8" as="geometry" />
        </mxCell>
        <mxCell id="0BSR14LC0eBBOxR-5EJ3-261" value="people" style="text;html=1;strokeColor=none;fillColor=none;align=left;verticalAlign=top;spacingLeft=4;spacingRight=4;whiteSpace=wrap;overflow=hidden;rotatable=0;points=[[0,0.5],[1,0.5]];portConstraint=eastwest;" vertex="1" parent="0BSR14LC0eBBOxR-5EJ3-257">
          <mxGeometry y="86" width="160" height="26" as="geometry" />
        </mxCell>
        <mxCell id="0BSR14LC0eBBOxR-5EJ3-262" value="place&lt;br&gt;" style="text;html=1;strokeColor=none;fillColor=none;align=left;verticalAlign=top;spacingLeft=4;spacingRight=4;whiteSpace=wrap;overflow=hidden;rotatable=0;points=[[0,0.5],[1,0.5]];portConstraint=eastwest;" vertex="1" parent="0BSR14LC0eBBOxR-5EJ3-257">
          <mxGeometry y="112" width="160" height="26" as="geometry" />
        </mxCell>
        <mxCell id="0BSR14LC0eBBOxR-5EJ3-263" value="comments" style="text;html=1;strokeColor=none;fillColor=none;align=left;verticalAlign=top;spacingLeft=4;spacingRight=4;whiteSpace=wrap;overflow=hidden;rotatable=0;points=[[0,0.5],[1,0.5]];portConstraint=eastwest;" vertex="1" parent="0BSR14LC0eBBOxR-5EJ3-257">
          <mxGeometry y="138" width="160" height="26" as="geometry" />
        </mxCell>
        <mxCell id="0BSR14LC0eBBOxR-5EJ3-264" value="PLACE" style="swimlane;html=1;fontStyle=1;align=center;verticalAlign=top;childLayout=stackLayout;horizontal=1;startSize=26;horizontalStack=0;resizeParent=1;resizeLast=0;collapsible=1;marginBottom=0;swimlaneFillColor=#ffffff;shadow=0;comic=0;labelBackgroundColor=none;strokeWidth=1;fillColor=none;fontFamily=Verdana;fontSize=12;" vertex="1" parent="1">
          <mxGeometry x="690" y="-1450" width="160" height="118" as="geometry">
            <mxRectangle x="690" y="-2760" width="70" height="26" as="alternateBounds" />
          </mxGeometry>
        </mxCell>
        <mxCell id="0BSR14LC0eBBOxR-5EJ3-265" value="name" style="text;html=1;strokeColor=none;fillColor=none;align=left;verticalAlign=top;spacingLeft=4;spacingRight=4;whiteSpace=wrap;overflow=hidden;rotatable=0;points=[[0,0.5],[1,0.5]];portConstraint=eastwest;" vertex="1" parent="0BSR14LC0eBBOxR-5EJ3-264">
          <mxGeometry y="26" width="160" height="26" as="geometry" />
        </mxCell>
        <mxCell id="0BSR14LC0eBBOxR-5EJ3-266" value="address" style="text;html=1;strokeColor=none;fillColor=none;align=left;verticalAlign=top;spacingLeft=4;spacingRight=4;whiteSpace=wrap;overflow=hidden;rotatable=0;points=[[0,0.5],[1,0.5]];portConstraint=eastwest;" vertex="1" parent="0BSR14LC0eBBOxR-5EJ3-264">
          <mxGeometry y="52" width="160" height="26" as="geometry" />
        </mxCell>
        <mxCell id="0BSR14LC0eBBOxR-5EJ3-267" value="" style="line;html=1;strokeWidth=1;fillColor=none;align=left;verticalAlign=middle;spacingTop=-1;spacingLeft=3;spacingRight=3;rotatable=0;labelPosition=right;points=[];portConstraint=eastwest;" vertex="1" parent="0BSR14LC0eBBOxR-5EJ3-264">
          <mxGeometry y="78" width="160" height="8" as="geometry" />
        </mxCell>
        <mxCell id="0BSR14LC0eBBOxR-5EJ3-268" value="comments" style="text;html=1;strokeColor=none;fillColor=none;align=left;verticalAlign=top;spacingLeft=4;spacingRight=4;whiteSpace=wrap;overflow=hidden;rotatable=0;points=[[0,0.5],[1,0.5]];portConstraint=eastwest;" vertex="1" parent="0BSR14LC0eBBOxR-5EJ3-264">
          <mxGeometry y="86" width="160" height="26" as="geometry" />
        </mxCell>
        <mxCell id="0BSR14LC0eBBOxR-5EJ3-269" value="MESSAGE" style="swimlane;html=1;fontStyle=1;align=center;verticalAlign=top;childLayout=stackLayout;horizontal=1;startSize=26;horizontalStack=0;resizeParent=1;resizeLast=0;collapsible=1;marginBottom=0;swimlaneFillColor=#ffffff;shadow=0;comic=0;labelBackgroundColor=none;strokeWidth=1;fillColor=none;fontFamily=Verdana;fontSize=12;" vertex="1" parent="1">
          <mxGeometry x="890" y="-1450" width="160" height="80" as="geometry">
            <mxRectangle x="890" y="-2760" width="70" height="26" as="alternateBounds" />
          </mxGeometry>
        </mxCell>
        <mxCell id="0BSR14LC0eBBOxR-5EJ3-270" value="content" style="text;html=1;strokeColor=none;fillColor=none;align=left;verticalAlign=top;spacingLeft=4;spacingRight=4;whiteSpace=wrap;overflow=hidden;rotatable=0;points=[[0,0.5],[1,0.5]];portConstraint=eastwest;" vertex="1" parent="0BSR14LC0eBBOxR-5EJ3-269">
          <mxGeometry y="26" width="160" height="26" as="geometry" />
        </mxCell>
        <mxCell id="0BSR14LC0eBBOxR-5EJ3-271" value="date" style="text;html=1;strokeColor=none;fillColor=none;align=left;verticalAlign=top;spacingLeft=4;spacingRight=4;whiteSpace=wrap;overflow=hidden;rotatable=0;points=[[0,0.5],[1,0.5]];portConstraint=eastwest;" vertex="1" parent="0BSR14LC0eBBOxR-5EJ3-269">
          <mxGeometry y="52" width="160" height="26" as="geometry" />
        </mxCell>
        <mxCell id="0BSR14LC0eBBOxR-5EJ3-272" value="PHOTO" style="swimlane;html=1;fontStyle=1;align=center;verticalAlign=top;childLayout=stackLayout;horizontal=1;startSize=26;horizontalStack=0;resizeParent=1;resizeLast=0;collapsible=1;marginBottom=0;swimlaneFillColor=#ffffff;shadow=0;comic=0;labelBackgroundColor=none;strokeWidth=1;fillColor=none;fontFamily=Verdana;fontSize=12;" vertex="1" parent="1">
          <mxGeometry x="95" y="-1450" width="160" height="138" as="geometry" />
        </mxCell>
        <mxCell id="0BSR14LC0eBBOxR-5EJ3-273" value="name" style="text;html=1;strokeColor=none;fillColor=none;align=left;verticalAlign=top;spacingLeft=4;spacingRight=4;whiteSpace=wrap;overflow=hidden;rotatable=0;points=[[0,0.5],[1,0.5]];portConstraint=eastwest;" vertex="1" parent="0BSR14LC0eBBOxR-5EJ3-272">
          <mxGeometry y="26" width="160" height="26" as="geometry" />
        </mxCell>
        <mxCell id="0BSR14LC0eBBOxR-5EJ3-274" value="content" style="text;html=1;strokeColor=none;fillColor=none;align=left;verticalAlign=top;spacingLeft=4;spacingRight=4;whiteSpace=wrap;overflow=hidden;rotatable=0;points=[[0,0.5],[1,0.5]];portConstraint=eastwest;" vertex="1" parent="0BSR14LC0eBBOxR-5EJ3-272">
          <mxGeometry y="52" width="160" height="26" as="geometry" />
        </mxCell>
        <mxCell id="0BSR14LC0eBBOxR-5EJ3-275" value="" style="line;html=1;strokeWidth=1;fillColor=none;align=left;verticalAlign=middle;spacingTop=-1;spacingLeft=3;spacingRight=3;rotatable=0;labelPosition=right;points=[];portConstraint=eastwest;" vertex="1" parent="0BSR14LC0eBBOxR-5EJ3-272">
          <mxGeometry y="78" width="160" height="8" as="geometry" />
        </mxCell>
        <mxCell id="0BSR14LC0eBBOxR-5EJ3-276" value="people" style="text;html=1;strokeColor=none;fillColor=none;align=left;verticalAlign=top;spacingLeft=4;spacingRight=4;whiteSpace=wrap;overflow=hidden;rotatable=0;points=[[0,0.5],[1,0.5]];portConstraint=eastwest;" vertex="1" parent="0BSR14LC0eBBOxR-5EJ3-272">
          <mxGeometry y="86" width="160" height="26" as="geometry" />
        </mxCell>
        <mxCell id="0BSR14LC0eBBOxR-5EJ3-277" value="place&lt;br&gt;" style="text;html=1;strokeColor=none;fillColor=none;align=left;verticalAlign=top;spacingLeft=4;spacingRight=4;whiteSpace=wrap;overflow=hidden;rotatable=0;points=[[0,0.5],[1,0.5]];portConstraint=eastwest;" vertex="1" parent="0BSR14LC0eBBOxR-5EJ3-272">
          <mxGeometry y="112" width="160" height="26" as="geometry" />
        </mxCell>
        <mxCell id="0BSR14LC0eBBOxR-5EJ3-278" value="&lt;font style=&quot;font-size: 24px&quot;&gt;DOMAIN MODEL&lt;/font&gt;" style="rounded=0;whiteSpace=wrap;html=1;align=center;verticalAlign=top;labelBackgroundColor=none;" vertex="1" parent="1">
          <mxGeometry x="-120" y="-2800" width="1480" height="280" as="geometry" />
        </mxCell>
        <mxCell id="0BSR14LC0eBBOxR-5EJ3-279" style="edgeStyle=orthogonalEdgeStyle;rounded=0;jumpStyle=none;orthogonalLoop=1;jettySize=auto;html=1;fontColor=#000000;entryX=0.5;entryY=0;entryDx=0;entryDy=0;" edge="1" parent="1" source="0BSR14LC0eBBOxR-5EJ3-314" target="0BSR14LC0eBBOxR-5EJ3-301">
          <mxGeometry relative="1" as="geometry">
            <mxPoint x="470" y="-2764" as="targetPoint" />
            <Array as="points">
              <mxPoint x="175" y="-2635" />
              <mxPoint x="280" y="-2635" />
              <mxPoint x="280" y="-2760" />
              <mxPoint x="770" y="-2760" />
            </Array>
          </mxGeometry>
        </mxCell>
        <mxCell id="0BSR14LC0eBBOxR-5EJ3-280" style="edgeStyle=orthogonalEdgeStyle;rounded=0;jumpStyle=none;orthogonalLoop=1;jettySize=auto;html=1;fontColor=#000000;" edge="1" parent="1" source="0BSR14LC0eBBOxR-5EJ3-313" target="0BSR14LC0eBBOxR-5EJ3-283">
          <mxGeometry relative="1" as="geometry">
            <Array as="points">
              <mxPoint x="80" y="-2631" />
              <mxPoint x="80" y="-2671" />
            </Array>
          </mxGeometry>
        </mxCell>
        <mxCell id="0BSR14LC0eBBOxR-5EJ3-281" style="edgeStyle=orthogonalEdgeStyle;rounded=0;jumpStyle=none;orthogonalLoop=1;jettySize=auto;html=1;fontColor=#000000;" edge="1" parent="1" source="0BSR14LC0eBBOxR-5EJ3-299" target="0BSR14LC0eBBOxR-5EJ3-301">
          <mxGeometry relative="1" as="geometry" />
        </mxCell>
        <mxCell id="0BSR14LC0eBBOxR-5EJ3-282" style="edgeStyle=orthogonalEdgeStyle;rounded=0;jumpStyle=none;orthogonalLoop=1;jettySize=auto;html=1;fontColor=#000000;" edge="1" parent="1" source="0BSR14LC0eBBOxR-5EJ3-298" target="0BSR14LC0eBBOxR-5EJ3-283">
          <mxGeometry relative="1" as="geometry">
            <Array as="points">
              <mxPoint x="480" y="-2631" />
              <mxPoint x="480" y="-2550" />
              <mxPoint x="-30" y="-2550" />
            </Array>
          </mxGeometry>
        </mxCell>
        <mxCell id="0BSR14LC0eBBOxR-5EJ3-283" value="USER" style="swimlane;html=1;fontStyle=1;align=center;verticalAlign=top;childLayout=stackLayout;horizontal=1;startSize=26;horizontalStack=0;resizeParent=1;resizeLast=0;collapsible=1;marginBottom=0;swimlaneFillColor=#ffffff;shadow=0;comic=0;labelBackgroundColor=none;strokeWidth=1;fillColor=none;fontFamily=Verdana;fontSize=12;" vertex="1" parent="1">
          <mxGeometry x="-110" y="-2730" width="160" height="118" as="geometry" />
        </mxCell>
        <mxCell id="0BSR14LC0eBBOxR-5EJ3-284" value="name" style="text;html=1;strokeColor=none;fillColor=none;align=left;verticalAlign=top;spacingLeft=4;spacingRight=4;whiteSpace=wrap;overflow=hidden;rotatable=0;points=[[0,0.5],[1,0.5]];portConstraint=eastwest;" vertex="1" parent="0BSR14LC0eBBOxR-5EJ3-283">
          <mxGeometry y="26" width="160" height="26" as="geometry" />
        </mxCell>
        <mxCell id="0BSR14LC0eBBOxR-5EJ3-285" value="surname" style="text;html=1;strokeColor=none;fillColor=none;align=left;verticalAlign=top;spacingLeft=4;spacingRight=4;whiteSpace=wrap;overflow=hidden;rotatable=0;points=[[0,0.5],[1,0.5]];portConstraint=eastwest;" vertex="1" parent="0BSR14LC0eBBOxR-5EJ3-283">
          <mxGeometry y="52" width="160" height="26" as="geometry" />
        </mxCell>
        <mxCell id="0BSR14LC0eBBOxR-5EJ3-286" value="" style="line;html=1;strokeWidth=1;fillColor=none;align=left;verticalAlign=middle;spacingTop=-1;spacingLeft=3;spacingRight=3;rotatable=0;labelPosition=right;points=[];portConstraint=eastwest;" vertex="1" parent="0BSR14LC0eBBOxR-5EJ3-283">
          <mxGeometry y="78" width="160" height="8" as="geometry" />
        </mxCell>
        <mxCell id="0BSR14LC0eBBOxR-5EJ3-287" style="edgeStyle=orthogonalEdgeStyle;rounded=0;jumpStyle=none;orthogonalLoop=1;jettySize=auto;html=1;fontColor=#000000;" edge="1" parent="0BSR14LC0eBBOxR-5EJ3-283" source="0BSR14LC0eBBOxR-5EJ3-288" target="0BSR14LC0eBBOxR-5EJ3-283">
          <mxGeometry relative="1" as="geometry">
            <mxPoint x="170" y="10" as="targetPoint" />
            <Array as="points">
              <mxPoint x="180" y="99" />
              <mxPoint x="180" y="10" />
            </Array>
          </mxGeometry>
        </mxCell>
        <mxCell id="0BSR14LC0eBBOxR-5EJ3-288" value="friends" style="text;html=1;strokeColor=none;fillColor=none;align=left;verticalAlign=top;spacingLeft=4;spacingRight=4;whiteSpace=wrap;overflow=hidden;rotatable=0;points=[[0,0.5],[1,0.5]];portConstraint=eastwest;" vertex="1" parent="0BSR14LC0eBBOxR-5EJ3-283">
          <mxGeometry y="86" width="160" height="26" as="geometry" />
        </mxCell>
        <mxCell id="0BSR14LC0eBBOxR-5EJ3-289" value="ARTICLE" style="swimlane;html=1;fontStyle=1;align=center;verticalAlign=top;childLayout=stackLayout;horizontal=1;startSize=26;horizontalStack=0;resizeParent=1;resizeLast=0;collapsible=1;marginBottom=0;swimlaneFillColor=#ffffff;shadow=0;comic=0;labelBackgroundColor=none;strokeWidth=1;fillColor=none;fontFamily=Verdana;fontSize=12;" vertex="1" parent="1">
          <mxGeometry x="300" y="-2730" width="160" height="118" as="geometry" />
        </mxCell>
        <mxCell id="0BSR14LC0eBBOxR-5EJ3-290" value="name" style="text;html=1;strokeColor=none;fillColor=none;align=left;verticalAlign=top;spacingLeft=4;spacingRight=4;whiteSpace=wrap;overflow=hidden;rotatable=0;points=[[0,0.5],[1,0.5]];portConstraint=eastwest;" vertex="1" parent="0BSR14LC0eBBOxR-5EJ3-289">
          <mxGeometry y="26" width="160" height="26" as="geometry" />
        </mxCell>
        <mxCell id="0BSR14LC0eBBOxR-5EJ3-291" value="content" style="text;html=1;strokeColor=none;fillColor=none;align=left;verticalAlign=top;spacingLeft=4;spacingRight=4;whiteSpace=wrap;overflow=hidden;rotatable=0;points=[[0,0.5],[1,0.5]];portConstraint=eastwest;" vertex="1" parent="0BSR14LC0eBBOxR-5EJ3-289">
          <mxGeometry y="52" width="160" height="26" as="geometry" />
        </mxCell>
        <mxCell id="0BSR14LC0eBBOxR-5EJ3-292" value="" style="line;html=1;strokeWidth=1;fillColor=none;align=left;verticalAlign=middle;spacingTop=-1;spacingLeft=3;spacingRight=3;rotatable=0;labelPosition=right;points=[];portConstraint=eastwest;" vertex="1" parent="0BSR14LC0eBBOxR-5EJ3-289">
          <mxGeometry y="78" width="160" height="8" as="geometry" />
        </mxCell>
        <mxCell id="0BSR14LC0eBBOxR-5EJ3-293" value="comments" style="text;html=1;strokeColor=none;fillColor=none;align=left;verticalAlign=top;spacingLeft=4;spacingRight=4;whiteSpace=wrap;overflow=hidden;rotatable=0;points=[[0,0.5],[1,0.5]];portConstraint=eastwest;" vertex="1" parent="0BSR14LC0eBBOxR-5EJ3-289">
          <mxGeometry y="86" width="160" height="26" as="geometry" />
        </mxCell>
        <mxCell id="0BSR14LC0eBBOxR-5EJ3-294" value="EVENT" style="swimlane;html=1;fontStyle=1;align=center;verticalAlign=top;childLayout=stackLayout;horizontal=1;startSize=26;horizontalStack=0;resizeParent=1;resizeLast=0;collapsible=1;marginBottom=0;swimlaneFillColor=#ffffff;shadow=0;comic=0;labelBackgroundColor=none;strokeWidth=1;fillColor=none;fontFamily=Verdana;fontSize=12;" vertex="1" parent="1">
          <mxGeometry x="490" y="-2730" width="160" height="170" as="geometry">
            <mxRectangle x="510" y="-2750" width="70" height="26" as="alternateBounds" />
          </mxGeometry>
        </mxCell>
        <mxCell id="0BSR14LC0eBBOxR-5EJ3-295" value="name" style="text;html=1;strokeColor=none;fillColor=none;align=left;verticalAlign=top;spacingLeft=4;spacingRight=4;whiteSpace=wrap;overflow=hidden;rotatable=0;points=[[0,0.5],[1,0.5]];portConstraint=eastwest;" vertex="1" parent="0BSR14LC0eBBOxR-5EJ3-294">
          <mxGeometry y="26" width="160" height="26" as="geometry" />
        </mxCell>
        <mxCell id="0BSR14LC0eBBOxR-5EJ3-296" value="date" style="text;html=1;strokeColor=none;fillColor=none;align=left;verticalAlign=top;spacingLeft=4;spacingRight=4;whiteSpace=wrap;overflow=hidden;rotatable=0;points=[[0,0.5],[1,0.5]];portConstraint=eastwest;" vertex="1" parent="0BSR14LC0eBBOxR-5EJ3-294">
          <mxGeometry y="52" width="160" height="26" as="geometry" />
        </mxCell>
        <mxCell id="0BSR14LC0eBBOxR-5EJ3-297" value="" style="line;html=1;strokeWidth=1;fillColor=none;align=left;verticalAlign=middle;spacingTop=-1;spacingLeft=3;spacingRight=3;rotatable=0;labelPosition=right;points=[];portConstraint=eastwest;" vertex="1" parent="0BSR14LC0eBBOxR-5EJ3-294">
          <mxGeometry y="78" width="160" height="8" as="geometry" />
        </mxCell>
        <mxCell id="0BSR14LC0eBBOxR-5EJ3-298" value="people" style="text;html=1;strokeColor=none;fillColor=none;align=left;verticalAlign=top;spacingLeft=4;spacingRight=4;whiteSpace=wrap;overflow=hidden;rotatable=0;points=[[0,0.5],[1,0.5]];portConstraint=eastwest;" vertex="1" parent="0BSR14LC0eBBOxR-5EJ3-294">
          <mxGeometry y="86" width="160" height="26" as="geometry" />
        </mxCell>
        <mxCell id="0BSR14LC0eBBOxR-5EJ3-299" value="place&lt;br&gt;" style="text;html=1;strokeColor=none;fillColor=none;align=left;verticalAlign=top;spacingLeft=4;spacingRight=4;whiteSpace=wrap;overflow=hidden;rotatable=0;points=[[0,0.5],[1,0.5]];portConstraint=eastwest;" vertex="1" parent="0BSR14LC0eBBOxR-5EJ3-294">
          <mxGeometry y="112" width="160" height="26" as="geometry" />
        </mxCell>
        <mxCell id="0BSR14LC0eBBOxR-5EJ3-300" value="comments" style="text;html=1;strokeColor=none;fillColor=none;align=left;verticalAlign=top;spacingLeft=4;spacingRight=4;whiteSpace=wrap;overflow=hidden;rotatable=0;points=[[0,0.5],[1,0.5]];portConstraint=eastwest;" vertex="1" parent="0BSR14LC0eBBOxR-5EJ3-294">
          <mxGeometry y="138" width="160" height="26" as="geometry" />
        </mxCell>
        <mxCell id="0BSR14LC0eBBOxR-5EJ3-301" value="PLACE" style="swimlane;html=1;fontStyle=1;align=center;verticalAlign=top;childLayout=stackLayout;horizontal=1;startSize=26;horizontalStack=0;resizeParent=1;resizeLast=0;collapsible=1;marginBottom=0;swimlaneFillColor=#ffffff;shadow=0;comic=0;labelBackgroundColor=none;strokeWidth=1;fillColor=none;fontFamily=Verdana;fontSize=12;" vertex="1" parent="1">
          <mxGeometry x="690" y="-2730" width="160" height="118" as="geometry">
            <mxRectangle x="690" y="-2760" width="70" height="26" as="alternateBounds" />
          </mxGeometry>
        </mxCell>
        <mxCell id="0BSR14LC0eBBOxR-5EJ3-302" value="name" style="text;html=1;strokeColor=none;fillColor=none;align=left;verticalAlign=top;spacingLeft=4;spacingRight=4;whiteSpace=wrap;overflow=hidden;rotatable=0;points=[[0,0.5],[1,0.5]];portConstraint=eastwest;" vertex="1" parent="0BSR14LC0eBBOxR-5EJ3-301">
          <mxGeometry y="26" width="160" height="26" as="geometry" />
        </mxCell>
        <mxCell id="0BSR14LC0eBBOxR-5EJ3-303" value="address" style="text;html=1;strokeColor=none;fillColor=none;align=left;verticalAlign=top;spacingLeft=4;spacingRight=4;whiteSpace=wrap;overflow=hidden;rotatable=0;points=[[0,0.5],[1,0.5]];portConstraint=eastwest;" vertex="1" parent="0BSR14LC0eBBOxR-5EJ3-301">
          <mxGeometry y="52" width="160" height="26" as="geometry" />
        </mxCell>
        <mxCell id="0BSR14LC0eBBOxR-5EJ3-304" value="" style="line;html=1;strokeWidth=1;fillColor=none;align=left;verticalAlign=middle;spacingTop=-1;spacingLeft=3;spacingRight=3;rotatable=0;labelPosition=right;points=[];portConstraint=eastwest;" vertex="1" parent="0BSR14LC0eBBOxR-5EJ3-301">
          <mxGeometry y="78" width="160" height="8" as="geometry" />
        </mxCell>
        <mxCell id="0BSR14LC0eBBOxR-5EJ3-305" value="comments" style="text;html=1;strokeColor=none;fillColor=none;align=left;verticalAlign=top;spacingLeft=4;spacingRight=4;whiteSpace=wrap;overflow=hidden;rotatable=0;points=[[0,0.5],[1,0.5]];portConstraint=eastwest;" vertex="1" parent="0BSR14LC0eBBOxR-5EJ3-301">
          <mxGeometry y="86" width="160" height="26" as="geometry" />
        </mxCell>
        <mxCell id="0BSR14LC0eBBOxR-5EJ3-306" value="MESSAGE" style="swimlane;html=1;fontStyle=1;align=center;verticalAlign=top;childLayout=stackLayout;horizontal=1;startSize=26;horizontalStack=0;resizeParent=1;resizeLast=0;collapsible=1;marginBottom=0;swimlaneFillColor=#ffffff;shadow=0;comic=0;labelBackgroundColor=none;strokeWidth=1;fillColor=none;fontFamily=Verdana;fontSize=12;" vertex="1" parent="1">
          <mxGeometry x="890" y="-2730" width="160" height="80" as="geometry">
            <mxRectangle x="890" y="-2760" width="70" height="26" as="alternateBounds" />
          </mxGeometry>
        </mxCell>
        <mxCell id="0BSR14LC0eBBOxR-5EJ3-307" value="content" style="text;html=1;strokeColor=none;fillColor=none;align=left;verticalAlign=top;spacingLeft=4;spacingRight=4;whiteSpace=wrap;overflow=hidden;rotatable=0;points=[[0,0.5],[1,0.5]];portConstraint=eastwest;" vertex="1" parent="0BSR14LC0eBBOxR-5EJ3-306">
          <mxGeometry y="26" width="160" height="26" as="geometry" />
        </mxCell>
        <mxCell id="0BSR14LC0eBBOxR-5EJ3-308" value="date" style="text;html=1;strokeColor=none;fillColor=none;align=left;verticalAlign=top;spacingLeft=4;spacingRight=4;whiteSpace=wrap;overflow=hidden;rotatable=0;points=[[0,0.5],[1,0.5]];portConstraint=eastwest;" vertex="1" parent="0BSR14LC0eBBOxR-5EJ3-306">
          <mxGeometry y="52" width="160" height="26" as="geometry" />
        </mxCell>
        <mxCell id="0BSR14LC0eBBOxR-5EJ3-309" value="PHOTO" style="swimlane;html=1;fontStyle=1;align=center;verticalAlign=top;childLayout=stackLayout;horizontal=1;startSize=26;horizontalStack=0;resizeParent=1;resizeLast=0;collapsible=1;marginBottom=0;swimlaneFillColor=#ffffff;shadow=0;comic=0;labelBackgroundColor=none;strokeWidth=1;fillColor=none;fontFamily=Verdana;fontSize=12;" vertex="1" parent="1">
          <mxGeometry x="95" y="-2730" width="160" height="138" as="geometry" />
        </mxCell>
        <mxCell id="0BSR14LC0eBBOxR-5EJ3-310" value="name" style="text;html=1;strokeColor=none;fillColor=none;align=left;verticalAlign=top;spacingLeft=4;spacingRight=4;whiteSpace=wrap;overflow=hidden;rotatable=0;points=[[0,0.5],[1,0.5]];portConstraint=eastwest;" vertex="1" parent="0BSR14LC0eBBOxR-5EJ3-309">
          <mxGeometry y="26" width="160" height="26" as="geometry" />
        </mxCell>
        <mxCell id="0BSR14LC0eBBOxR-5EJ3-311" value="content" style="text;html=1;strokeColor=none;fillColor=none;align=left;verticalAlign=top;spacingLeft=4;spacingRight=4;whiteSpace=wrap;overflow=hidden;rotatable=0;points=[[0,0.5],[1,0.5]];portConstraint=eastwest;" vertex="1" parent="0BSR14LC0eBBOxR-5EJ3-309">
          <mxGeometry y="52" width="160" height="26" as="geometry" />
        </mxCell>
        <mxCell id="0BSR14LC0eBBOxR-5EJ3-312" value="" style="line;html=1;strokeWidth=1;fillColor=none;align=left;verticalAlign=middle;spacingTop=-1;spacingLeft=3;spacingRight=3;rotatable=0;labelPosition=right;points=[];portConstraint=eastwest;" vertex="1" parent="0BSR14LC0eBBOxR-5EJ3-309">
          <mxGeometry y="78" width="160" height="8" as="geometry" />
        </mxCell>
        <mxCell id="0BSR14LC0eBBOxR-5EJ3-313" value="people" style="text;html=1;strokeColor=none;fillColor=none;align=left;verticalAlign=top;spacingLeft=4;spacingRight=4;whiteSpace=wrap;overflow=hidden;rotatable=0;points=[[0,0.5],[1,0.5]];portConstraint=eastwest;" vertex="1" parent="0BSR14LC0eBBOxR-5EJ3-309">
          <mxGeometry y="86" width="160" height="26" as="geometry" />
        </mxCell>
        <mxCell id="0BSR14LC0eBBOxR-5EJ3-314" value="place&lt;br&gt;" style="text;html=1;strokeColor=none;fillColor=none;align=left;verticalAlign=top;spacingLeft=4;spacingRight=4;whiteSpace=wrap;overflow=hidden;rotatable=0;points=[[0,0.5],[1,0.5]];portConstraint=eastwest;" vertex="1" parent="0BSR14LC0eBBOxR-5EJ3-309">
          <mxGeometry y="112" width="160" height="26" as="geometry" />
        </mxCell>
        <mxCell id="0BSR14LC0eBBOxR-5EJ3-315" value="&lt;font style=&quot;font-size: 24px&quot;&gt;Auto-generated CLIENT&lt;/font&gt;" style="rounded=0;whiteSpace=wrap;html=1;labelBackgroundColor=none;sketch=0;fontColor=#000000;align=center;horizontal=0;" vertex="1" parent="1">
          <mxGeometry x="790" y="-840" width="80" height="560" as="geometry" />
        </mxCell>
        <mxCell id="0BSR14LC0eBBOxR-5EJ3-316" value="&lt;font style=&quot;font-size: 24px&quot;&gt;Front-end DOMAIN MODEL&lt;/font&gt;" style="rounded=0;whiteSpace=wrap;html=1;labelBackgroundColor=none;sketch=0;fontColor=#000000;align=center;horizontal=0;" vertex="1" parent="1">
          <mxGeometry x="920" y="-840" width="80" height="560" as="geometry" />
        </mxCell>
        <mxCell id="0BSR14LC0eBBOxR-5EJ3-319" value="" style="shape=singleArrow;whiteSpace=wrap;html=1;labelBackgroundColor=none;sketch=0;fontColor=#000000;align=center;arrowWidth=0.45;arrowSize=0.3875;direction=west;" vertex="1" parent="1">
          <mxGeometry x="450" y="-590" width="50" height="60" as="geometry" />
        </mxCell>
        <mxCell id="0BSR14LC0eBBOxR-5EJ3-320" value="" style="shape=singleArrow;whiteSpace=wrap;html=1;labelBackgroundColor=none;sketch=0;fontColor=#000000;align=center;arrowWidth=0.45;arrowSize=0.3875;" vertex="1" parent="1">
          <mxGeometry x="870" y="-590" width="50" height="60" as="geometry" />
        </mxCell>
        <mxCell id="0BSR14LC0eBBOxR-5EJ3-321" value="" style="shape=singleArrow;whiteSpace=wrap;html=1;labelBackgroundColor=none;sketch=0;fontColor=#000000;align=center;arrowWidth=0.45;arrowSize=0.3875;" vertex="1" parent="1">
          <mxGeometry x="740" y="-590" width="50" height="60" as="geometry" />
        </mxCell>
        <mxCell id="0BSR14LC0eBBOxR-5EJ3-386" style="edgeStyle=orthogonalEdgeStyle;rounded=0;jumpStyle=none;orthogonalLoop=1;jettySize=auto;html=1;entryX=0.5;entryY=0;entryDx=0;entryDy=0;fontColor=#000000;" edge="1" parent="1" source="0BSR14LC0eBBOxR-5EJ3-322" target="0BSR14LC0eBBOxR-5EJ3-370">
          <mxGeometry relative="1" as="geometry">
            <Array as="points">
              <mxPoint x="320" y="-830" />
            </Array>
          </mxGeometry>
        </mxCell>
        <mxCell id="0BSR14LC0eBBOxR-5EJ3-387" style="edgeStyle=orthogonalEdgeStyle;rounded=0;jumpStyle=none;orthogonalLoop=1;jettySize=auto;html=1;fontColor=#000000;" edge="1" parent="1" source="0BSR14LC0eBBOxR-5EJ3-322" target="0BSR14LC0eBBOxR-5EJ3-367">
          <mxGeometry relative="1" as="geometry">
            <Array as="points">
              <mxPoint x="230" y="-310" />
            </Array>
          </mxGeometry>
        </mxCell>
        <mxCell id="0BSR14LC0eBBOxR-5EJ3-322" value="&lt;font style=&quot;font-size: 24px&quot;&gt;Auto-generated CONTROLLERS&lt;/font&gt;" style="rounded=0;whiteSpace=wrap;html=1;labelBackgroundColor=none;sketch=0;fontColor=#000000;align=center;horizontal=0;" vertex="1" parent="1">
          <mxGeometry x="370" y="-840" width="80" height="560" as="geometry" />
        </mxCell>
        <mxCell id="0BSR14LC0eBBOxR-5EJ3-323" value="" style="aspect=fixed;html=1;points=[];align=center;image;fontSize=12;image=img/lib/mscae/Functions.svg;labelBackgroundColor=none;sketch=0;" vertex="1" parent="1">
          <mxGeometry x="385" y="-820" width="50" height="46" as="geometry" />
        </mxCell>
        <mxCell id="0BSR14LC0eBBOxR-5EJ3-329" value="package" style="shape=folder;fontStyle=1;spacingTop=10;tabWidth=40;tabHeight=14;tabPosition=left;html=1;labelBackgroundColor=none;sketch=0;fontColor=#000000;align=center;verticalAlign=top;" vertex="1" parent="1">
          <mxGeometry x="1060" y="-790" width="250" height="190" as="geometry" />
        </mxCell>
        <mxCell id="0BSR14LC0eBBOxR-5EJ3-332" value="&lt;b&gt;ProfileComponent&lt;/b&gt;" style="html=1;dropTarget=0;labelBackgroundColor=none;sketch=0;fontColor=#000000;align=center;" vertex="1" parent="1">
          <mxGeometry x="1070" y="-750" width="110" height="70" as="geometry" />
        </mxCell>
        <mxCell id="0BSR14LC0eBBOxR-5EJ3-333" value="" style="shape=component;jettyWidth=8;jettyHeight=4;" vertex="1" parent="0BSR14LC0eBBOxR-5EJ3-332">
          <mxGeometry x="1" width="20" height="20" relative="1" as="geometry">
            <mxPoint x="-27" y="7" as="offset" />
          </mxGeometry>
        </mxCell>
        <mxCell id="0BSR14LC0eBBOxR-5EJ3-334" value="&lt;b&gt;Router&lt;/b&gt;" style="html=1;dropTarget=0;labelBackgroundColor=none;sketch=0;fontColor=#000000;align=center;" vertex="1" parent="1">
          <mxGeometry x="1190" y="-750" width="110" height="70" as="geometry" />
        </mxCell>
        <mxCell id="0BSR14LC0eBBOxR-5EJ3-335" value="" style="shape=component;jettyWidth=8;jettyHeight=4;" vertex="1" parent="0BSR14LC0eBBOxR-5EJ3-334">
          <mxGeometry x="1" width="20" height="20" relative="1" as="geometry">
            <mxPoint x="-27" y="7" as="offset" />
          </mxGeometry>
        </mxCell>
        <mxCell id="0BSR14LC0eBBOxR-5EJ3-336" value="&lt;b&gt;EventPage&lt;/b&gt;" style="html=1;dropTarget=0;labelBackgroundColor=none;sketch=0;fontColor=#000000;align=center;" vertex="1" parent="1">
          <mxGeometry x="1190" y="-675" width="110" height="70" as="geometry" />
        </mxCell>
        <mxCell id="0BSR14LC0eBBOxR-5EJ3-337" value="" style="shape=component;jettyWidth=8;jettyHeight=4;" vertex="1" parent="0BSR14LC0eBBOxR-5EJ3-336">
          <mxGeometry x="1" width="20" height="20" relative="1" as="geometry">
            <mxPoint x="-27" y="7" as="offset" />
          </mxGeometry>
        </mxCell>
        <mxCell id="0BSR14LC0eBBOxR-5EJ3-338" value="&lt;b&gt;ArticleComponent&lt;/b&gt;" style="html=1;dropTarget=0;labelBackgroundColor=none;sketch=0;fontColor=#000000;align=center;" vertex="1" parent="1">
          <mxGeometry x="1070" y="-675" width="110" height="70" as="geometry" />
        </mxCell>
        <mxCell id="0BSR14LC0eBBOxR-5EJ3-339" value="" style="shape=component;jettyWidth=8;jettyHeight=4;" vertex="1" parent="0BSR14LC0eBBOxR-5EJ3-338">
          <mxGeometry x="1" width="20" height="20" relative="1" as="geometry">
            <mxPoint x="-27" y="7" as="offset" />
          </mxGeometry>
        </mxCell>
        <mxCell id="0BSR14LC0eBBOxR-5EJ3-340" value="package" style="shape=folder;fontStyle=1;spacingTop=10;tabWidth=40;tabHeight=14;tabPosition=left;html=1;labelBackgroundColor=none;sketch=0;fontColor=#000000;align=center;verticalAlign=top;" vertex="1" parent="1">
          <mxGeometry x="1060" y="-575" width="250" height="190" as="geometry" />
        </mxCell>
        <mxCell id="0BSR14LC0eBBOxR-5EJ3-341" value="&lt;b&gt;Messanger&lt;/b&gt;" style="html=1;dropTarget=0;labelBackgroundColor=none;sketch=0;fontColor=#000000;align=center;" vertex="1" parent="1">
          <mxGeometry x="1070" y="-535" width="110" height="70" as="geometry" />
        </mxCell>
        <mxCell id="0BSR14LC0eBBOxR-5EJ3-342" value="" style="shape=component;jettyWidth=8;jettyHeight=4;" vertex="1" parent="0BSR14LC0eBBOxR-5EJ3-341">
          <mxGeometry x="1" width="20" height="20" relative="1" as="geometry">
            <mxPoint x="-27" y="7" as="offset" />
          </mxGeometry>
        </mxCell>
        <mxCell id="0BSR14LC0eBBOxR-5EJ3-349" style="edgeStyle=orthogonalEdgeStyle;rounded=0;jumpStyle=none;orthogonalLoop=1;jettySize=auto;html=1;fontColor=#000000;" edge="1" parent="1" source="0BSR14LC0eBBOxR-5EJ3-343" target="0BSR14LC0eBBOxR-5EJ3-336">
          <mxGeometry relative="1" as="geometry" />
        </mxCell>
        <mxCell id="0BSR14LC0eBBOxR-5EJ3-343" value="&lt;b&gt;GalleryComponent&lt;/b&gt;" style="html=1;dropTarget=0;labelBackgroundColor=none;sketch=0;fontColor=#000000;align=center;" vertex="1" parent="1">
          <mxGeometry x="1190" y="-535" width="110" height="70" as="geometry" />
        </mxCell>
        <mxCell id="0BSR14LC0eBBOxR-5EJ3-344" value="" style="shape=component;jettyWidth=8;jettyHeight=4;" vertex="1" parent="0BSR14LC0eBBOxR-5EJ3-343">
          <mxGeometry x="1" width="20" height="20" relative="1" as="geometry">
            <mxPoint x="-27" y="7" as="offset" />
          </mxGeometry>
        </mxCell>
        <mxCell id="0BSR14LC0eBBOxR-5EJ3-350" style="edgeStyle=orthogonalEdgeStyle;rounded=0;jumpStyle=none;orthogonalLoop=1;jettySize=auto;html=1;entryX=1;entryY=0.5;entryDx=0;entryDy=0;fontColor=#000000;" edge="1" parent="1" source="0BSR14LC0eBBOxR-5EJ3-345" target="0BSR14LC0eBBOxR-5EJ3-334">
          <mxGeometry relative="1" as="geometry">
            <Array as="points">
              <mxPoint x="1320" y="-425" />
              <mxPoint x="1320" y="-715" />
            </Array>
          </mxGeometry>
        </mxCell>
        <mxCell id="0BSR14LC0eBBOxR-5EJ3-345" value="&lt;b&gt;FooBar&lt;/b&gt;" style="html=1;dropTarget=0;labelBackgroundColor=none;sketch=0;fontColor=#000000;align=center;" vertex="1" parent="1">
          <mxGeometry x="1190" y="-460" width="110" height="70" as="geometry" />
        </mxCell>
        <mxCell id="0BSR14LC0eBBOxR-5EJ3-346" value="" style="shape=component;jettyWidth=8;jettyHeight=4;" vertex="1" parent="0BSR14LC0eBBOxR-5EJ3-345">
          <mxGeometry x="1" width="20" height="20" relative="1" as="geometry">
            <mxPoint x="-27" y="7" as="offset" />
          </mxGeometry>
        </mxCell>
        <mxCell id="0BSR14LC0eBBOxR-5EJ3-347" value="&lt;b&gt;SharedLib&lt;/b&gt;" style="html=1;dropTarget=0;labelBackgroundColor=none;sketch=0;fontColor=#000000;align=center;" vertex="1" parent="1">
          <mxGeometry x="1070" y="-460" width="110" height="70" as="geometry" />
        </mxCell>
        <mxCell id="0BSR14LC0eBBOxR-5EJ3-348" value="" style="shape=component;jettyWidth=8;jettyHeight=4;" vertex="1" parent="0BSR14LC0eBBOxR-5EJ3-347">
          <mxGeometry x="1" width="20" height="20" relative="1" as="geometry">
            <mxPoint x="-27" y="7" as="offset" />
          </mxGeometry>
        </mxCell>
        <mxCell id="0BSR14LC0eBBOxR-5EJ3-354" style="edgeStyle=orthogonalEdgeStyle;rounded=0;jumpStyle=none;orthogonalLoop=1;jettySize=auto;html=1;fontColor=#000000;" edge="1" parent="1" source="0BSR14LC0eBBOxR-5EJ3-351" target="0BSR14LC0eBBOxR-5EJ3-340">
          <mxGeometry relative="1" as="geometry">
            <Array as="points">
              <mxPoint x="1068" y="-365" />
              <mxPoint x="1185" y="-365" />
            </Array>
          </mxGeometry>
        </mxCell>
        <mxCell id="0BSR14LC0eBBOxR-5EJ3-351" value="React" style="shape=module;align=left;spacingLeft=20;align=center;verticalAlign=middle;labelBackgroundColor=none;sketch=0;fontColor=#000000;" vertex="1" parent="1">
          <mxGeometry x="1025" y="-350" width="85" height="50" as="geometry" />
        </mxCell>
        <mxCell id="0BSR14LC0eBBOxR-5EJ3-355" style="edgeStyle=orthogonalEdgeStyle;rounded=0;jumpStyle=none;orthogonalLoop=1;jettySize=auto;html=1;entryX=0;entryY=0.5;entryDx=0;entryDy=0;fontColor=#000000;" edge="1" parent="1" source="0BSR14LC0eBBOxR-5EJ3-352" target="0BSR14LC0eBBOxR-5EJ3-332">
          <mxGeometry relative="1" as="geometry">
            <Array as="points">
              <mxPoint x="1183" y="-290" />
              <mxPoint x="1020" y="-290" />
              <mxPoint x="1020" y="-715" />
            </Array>
          </mxGeometry>
        </mxCell>
        <mxCell id="0BSR14LC0eBBOxR-5EJ3-352" value="Apollo" style="shape=module;align=left;spacingLeft=20;align=center;verticalAlign=middle;labelBackgroundColor=none;sketch=0;fontColor=#000000;" vertex="1" parent="1">
          <mxGeometry x="1140" y="-350" width="85" height="50" as="geometry" />
        </mxCell>
        <mxCell id="0BSR14LC0eBBOxR-5EJ3-356" style="edgeStyle=orthogonalEdgeStyle;rounded=0;jumpStyle=none;orthogonalLoop=1;jettySize=auto;html=1;fontColor=#000000;" edge="1" parent="1" source="0BSR14LC0eBBOxR-5EJ3-353" target="0BSR14LC0eBBOxR-5EJ3-341">
          <mxGeometry relative="1" as="geometry">
            <Array as="points">
              <mxPoint x="1293" y="-360" />
              <mxPoint x="1125" y="-360" />
            </Array>
          </mxGeometry>
        </mxCell>
        <mxCell id="0BSR14LC0eBBOxR-5EJ3-353" value="MobX" style="shape=module;align=left;spacingLeft=20;align=center;verticalAlign=middle;labelBackgroundColor=none;sketch=0;fontColor=#000000;" vertex="1" parent="1">
          <mxGeometry x="1250" y="-350" width="85" height="50" as="geometry" />
        </mxCell>
        <mxCell id="0BSR14LC0eBBOxR-5EJ3-377" style="edgeStyle=orthogonalEdgeStyle;rounded=0;jumpStyle=none;orthogonalLoop=1;jettySize=auto;html=1;fontColor=#000000;" edge="1" parent="1" source="0BSR14LC0eBBOxR-5EJ3-358" target="0BSR14LC0eBBOxR-5EJ3-375">
          <mxGeometry relative="1" as="geometry">
            <Array as="points">
              <mxPoint x="150" y="-775" />
              <mxPoint x="150" y="-775" />
            </Array>
          </mxGeometry>
        </mxCell>
        <mxCell id="0BSR14LC0eBBOxR-5EJ3-358" value="User MicroService&lt;br&gt;" style="html=1;labelBackgroundColor=none;sketch=0;fontColor=#000000;align=center;verticalAlign=top;whiteSpace=wrap;" vertex="1" parent="1">
          <mxGeometry x="190" y="-800" width="80" height="80" as="geometry" />
        </mxCell>
        <mxCell id="0BSR14LC0eBBOxR-5EJ3-391" style="edgeStyle=orthogonalEdgeStyle;rounded=0;jumpStyle=none;orthogonalLoop=1;jettySize=auto;html=1;fontColor=#000000;" edge="1" parent="1" source="0BSR14LC0eBBOxR-5EJ3-360" target="0BSR14LC0eBBOxR-5EJ3-370">
          <mxGeometry relative="1" as="geometry">
            <Array as="points">
              <mxPoint x="280" y="-741" />
              <mxPoint x="280" y="-741" />
            </Array>
          </mxGeometry>
        </mxCell>
        <mxCell id="0BSR14LC0eBBOxR-5EJ3-360" value="" style="aspect=fixed;html=1;points=[];align=center;image;fontSize=12;image=img/lib/mscae/Cloud_Service.svg;labelBackgroundColor=none;sketch=0;" vertex="1" parent="1">
          <mxGeometry x="205" y="-762" width="50" height="42" as="geometry" />
        </mxCell>
        <mxCell id="0BSR14LC0eBBOxR-5EJ3-384" style="edgeStyle=orthogonalEdgeStyle;rounded=0;jumpStyle=none;orthogonalLoop=1;jettySize=auto;html=1;fontColor=#000000;" edge="1" parent="1" source="0BSR14LC0eBBOxR-5EJ3-361" target="0BSR14LC0eBBOxR-5EJ3-375">
          <mxGeometry relative="1" as="geometry">
            <Array as="points">
              <mxPoint x="180" y="-675" />
              <mxPoint x="180" y="-760" />
            </Array>
          </mxGeometry>
        </mxCell>
        <mxCell id="0BSR14LC0eBBOxR-5EJ3-361" value="Places MicroService" style="html=1;labelBackgroundColor=none;sketch=0;fontColor=#000000;align=center;verticalAlign=top;whiteSpace=wrap;" vertex="1" parent="1">
          <mxGeometry x="190" y="-715" width="80" height="80" as="geometry" />
        </mxCell>
        <mxCell id="0BSR14LC0eBBOxR-5EJ3-394" style="edgeStyle=orthogonalEdgeStyle;rounded=0;jumpStyle=none;orthogonalLoop=1;jettySize=auto;html=1;fontColor=#000000;" edge="1" parent="1" source="0BSR14LC0eBBOxR-5EJ3-362" target="0BSR14LC0eBBOxR-5EJ3-370">
          <mxGeometry relative="1" as="geometry">
            <Array as="points">
              <mxPoint x="290" y="-660" />
              <mxPoint x="290" y="-660" />
            </Array>
          </mxGeometry>
        </mxCell>
        <mxCell id="0BSR14LC0eBBOxR-5EJ3-362" value="" style="aspect=fixed;html=1;points=[];align=center;image;fontSize=12;image=img/lib/mscae/Cloud_Service.svg;labelBackgroundColor=none;sketch=0;" vertex="1" parent="1">
          <mxGeometry x="205" y="-681" width="50" height="42" as="geometry" />
        </mxCell>
        <mxCell id="0BSR14LC0eBBOxR-5EJ3-388" style="edgeStyle=orthogonalEdgeStyle;rounded=0;jumpStyle=none;orthogonalLoop=1;jettySize=auto;html=1;entryX=0.75;entryY=1;entryDx=0;entryDy=0;fontColor=#000000;" edge="1" parent="1" source="0BSR14LC0eBBOxR-5EJ3-365" target="0BSR14LC0eBBOxR-5EJ3-379">
          <mxGeometry relative="1" as="geometry" />
        </mxCell>
        <mxCell id="0BSR14LC0eBBOxR-5EJ3-365" value="Events MicroService" style="html=1;labelBackgroundColor=none;sketch=0;fontColor=#000000;align=center;verticalAlign=top;whiteSpace=wrap;" vertex="1" parent="1">
          <mxGeometry x="190" y="-630" width="80" height="80" as="geometry" />
        </mxCell>
        <mxCell id="0BSR14LC0eBBOxR-5EJ3-395" style="edgeStyle=orthogonalEdgeStyle;rounded=0;jumpStyle=none;orthogonalLoop=1;jettySize=auto;html=1;fontColor=#000000;" edge="1" parent="1" source="0BSR14LC0eBBOxR-5EJ3-366" target="0BSR14LC0eBBOxR-5EJ3-370">
          <mxGeometry relative="1" as="geometry">
            <Array as="points">
              <mxPoint x="280" y="-575" />
              <mxPoint x="280" y="-575" />
            </Array>
          </mxGeometry>
        </mxCell>
        <mxCell id="0BSR14LC0eBBOxR-5EJ3-366" value="" style="aspect=fixed;html=1;points=[];align=center;image;fontSize=12;image=img/lib/mscae/Cloud_Service.svg;labelBackgroundColor=none;sketch=0;" vertex="1" parent="1">
          <mxGeometry x="205" y="-596" width="50" height="42" as="geometry" />
        </mxCell>
        <mxCell id="0BSR14LC0eBBOxR-5EJ3-390" style="edgeStyle=orthogonalEdgeStyle;rounded=0;jumpStyle=none;orthogonalLoop=1;jettySize=auto;html=1;entryX=0.25;entryY=1;entryDx=0;entryDy=0;fontColor=#000000;" edge="1" parent="1" source="0BSR14LC0eBBOxR-5EJ3-367" target="0BSR14LC0eBBOxR-5EJ3-379">
          <mxGeometry relative="1" as="geometry" />
        </mxCell>
        <mxCell id="0BSR14LC0eBBOxR-5EJ3-367" value="Messages MicroService" style="html=1;labelBackgroundColor=none;sketch=0;fontColor=#000000;align=center;verticalAlign=top;whiteSpace=wrap;" vertex="1" parent="1">
          <mxGeometry x="190" y="-540" width="80" height="80" as="geometry" />
        </mxCell>
        <mxCell id="0BSR14LC0eBBOxR-5EJ3-396" style="edgeStyle=orthogonalEdgeStyle;rounded=0;jumpStyle=none;orthogonalLoop=1;jettySize=auto;html=1;fontColor=#000000;" edge="1" parent="1" source="0BSR14LC0eBBOxR-5EJ3-368" target="0BSR14LC0eBBOxR-5EJ3-370">
          <mxGeometry relative="1" as="geometry">
            <mxPoint x="280" y="-485" as="targetPoint" />
            <Array as="points">
              <mxPoint x="310" y="-490" />
              <mxPoint x="310" y="-490" />
            </Array>
          </mxGeometry>
        </mxCell>
        <mxCell id="0BSR14LC0eBBOxR-5EJ3-368" value="" style="aspect=fixed;html=1;points=[];align=center;image;fontSize=12;image=img/lib/mscae/Cloud_Service.svg;labelBackgroundColor=none;sketch=0;" vertex="1" parent="1">
          <mxGeometry x="205" y="-506" width="50" height="42" as="geometry" />
        </mxCell>
        <mxCell id="0BSR14LC0eBBOxR-5EJ3-385" style="edgeStyle=orthogonalEdgeStyle;rounded=0;jumpStyle=none;orthogonalLoop=1;jettySize=auto;html=1;fontColor=#000000;" edge="1" parent="1" source="0BSR14LC0eBBOxR-5EJ3-370" target="0BSR14LC0eBBOxR-5EJ3-322">
          <mxGeometry relative="1" as="geometry">
            <Array as="points">
              <mxPoint x="320" y="-330" />
            </Array>
          </mxGeometry>
        </mxCell>
        <mxCell id="0BSR14LC0eBBOxR-5EJ3-370" value="&lt;font style=&quot;font-size: 36px&quot;&gt;MessageBus&lt;/font&gt;" style="rounded=0;whiteSpace=wrap;html=1;labelBackgroundColor=none;sketch=0;fontColor=#000000;align=center;horizontal=0;" vertex="1" parent="1">
          <mxGeometry x="290" y="-800" width="60" height="430" as="geometry" />
        </mxCell>
        <mxCell id="0BSR14LC0eBBOxR-5EJ3-369" value="" style="aspect=fixed;perimeter=ellipsePerimeter;html=1;align=center;shadow=0;dashed=0;fontColor=#4277BB;labelBackgroundColor=#ffffff;fontSize=12;spacingTop=3;image;image=img/lib/ibm/blockchain/message_bus.svg;sketch=0;" vertex="1" parent="1">
          <mxGeometry x="295" y="-790" width="50" height="50" as="geometry" />
        </mxCell>
        <mxCell id="0BSR14LC0eBBOxR-5EJ3-371" value="&lt;font style=&quot;font-size: 36px&quot;&gt;Mongo DB&lt;/font&gt;" style="rounded=0;whiteSpace=wrap;html=1;labelBackgroundColor=none;sketch=0;fontColor=#000000;align=center;horizontal=0;" vertex="1" parent="1">
          <mxGeometry x="-50" y="-720" width="60" height="430" as="geometry" />
        </mxCell>
        <mxCell id="0BSR14LC0eBBOxR-5EJ3-372" value="&lt;font style=&quot;font-size: 36px&quot;&gt;SQL storage&lt;/font&gt;" style="rounded=0;whiteSpace=wrap;html=1;labelBackgroundColor=none;sketch=0;fontColor=#000000;align=center;horizontal=0;" vertex="1" parent="1">
          <mxGeometry x="-110" y="-720" width="60" height="430" as="geometry" />
        </mxCell>
        <mxCell id="0BSR14LC0eBBOxR-5EJ3-373" value="" style="aspect=fixed;html=1;points=[];align=center;image;fontSize=12;image=img/lib/mscae/dep/SQL_Server_Stretch_DB.svg;labelBackgroundColor=none;sketch=0;" vertex="1" parent="1">
          <mxGeometry x="-105" y="-705" width="50" height="50" as="geometry" />
        </mxCell>
        <mxCell id="0BSR14LC0eBBOxR-5EJ3-374" value="" style="aspect=fixed;html=1;points=[];align=center;image;fontSize=12;image=img/lib/mscae/Data_Lake.svg;labelBackgroundColor=none;sketch=0;" vertex="1" parent="1">
          <mxGeometry x="-39" y="-705" width="38" height="50" as="geometry" />
        </mxCell>
        <mxCell id="0BSR14LC0eBBOxR-5EJ3-378" style="edgeStyle=orthogonalEdgeStyle;rounded=0;jumpStyle=none;orthogonalLoop=1;jettySize=auto;html=1;fontColor=#000000;" edge="1" parent="1" source="0BSR14LC0eBBOxR-5EJ3-375" target="0BSR14LC0eBBOxR-5EJ3-372">
          <mxGeometry relative="1" as="geometry">
            <Array as="points">
              <mxPoint x="-80" y="-740" />
              <mxPoint x="-80" y="-740" />
            </Array>
          </mxGeometry>
        </mxCell>
        <mxCell id="0BSR14LC0eBBOxR-5EJ3-375" value="&lt;font style=&quot;font-size: 24px&quot;&gt;ORM&lt;/font&gt;" style="html=1;labelBackgroundColor=none;sketch=0;fontColor=#000000;align=left;" vertex="1" parent="1">
          <mxGeometry x="-105" y="-800" width="115" height="50" as="geometry" />
        </mxCell>
        <mxCell id="0BSR14LC0eBBOxR-5EJ3-376" value="" style="aspect=fixed;html=1;points=[];align=center;image;fontSize=12;image=img/lib/mscae/Analysis_Services.svg;labelBackgroundColor=none;sketch=0;" vertex="1" parent="1">
          <mxGeometry x="-45" y="-794" width="50" height="39" as="geometry" />
        </mxCell>
        <mxCell id="0BSR14LC0eBBOxR-5EJ3-383" style="edgeStyle=orthogonalEdgeStyle;rounded=0;jumpStyle=none;orthogonalLoop=1;jettySize=auto;html=1;exitX=0;exitY=0.5;exitDx=0;exitDy=0;entryX=0.5;entryY=0;entryDx=0;entryDy=0;fontColor=#000000;" edge="1" parent="1" source="0BSR14LC0eBBOxR-5EJ3-379" target="0BSR14LC0eBBOxR-5EJ3-371">
          <mxGeometry relative="1" as="geometry" />
        </mxCell>
        <mxCell id="0BSR14LC0eBBOxR-5EJ3-379" value="&lt;font style=&quot;font-size: 24px&quot;&gt;Mongoose&lt;/font&gt;" style="html=1;labelBackgroundColor=none;sketch=0;fontColor=#000000;align=center;verticalAlign=top;" vertex="1" parent="1">
          <mxGeometry x="40" y="-720" width="120" height="90" as="geometry" />
        </mxCell>
        <mxCell id="0BSR14LC0eBBOxR-5EJ3-380" value="" style="aspect=fixed;html=1;points=[];align=center;image;fontSize=12;image=img/lib/mscae/Data_Lake_Storage.svg;labelBackgroundColor=none;sketch=0;" vertex="1" parent="1">
          <mxGeometry x="50" y="-681.4" width="45" height="41.4" as="geometry" />
        </mxCell>
        <mxCell id="0BSR14LC0eBBOxR-5EJ3-381" value="" style="aspect=fixed;html=1;points=[];align=center;image;fontSize=12;image=img/lib/mscae/Queues_Storage.svg;labelBackgroundColor=none;sketch=0;" vertex="1" parent="1">
          <mxGeometry x="100" y="-681.4" width="50" height="44" as="geometry" />
        </mxCell>
      </root>
    </mxGraphModel>
  </diagram>
</mxfile>
